<svg id="SvgjsSvg1006" width="1348" height="522" xmlns="http://www.w3.org/2000/svg" version="1.1" xmlns:xlink="http://www.w3.org/1999/xlink" xmlns:svgjs="http://svgjs.com/svgjs"><defs id="SvgjsDefs1007"><marker id="SvgjsMarker1185" markerWidth="16" markerHeight="12" refX="16" refY="6" viewBox="0 0 16 12" orient="auto" markerUnits="userSpaceOnUse" stroke-dasharray="0,0"><path id="SvgjsPath1186" d="M0,2 L14,6 L0,11 L0,2" fill="#323232" stroke="#323232" stroke-width="2"></path></marker></defs><rect id="SvgjsRect1008" width="1348" height="522" fill="#ffffff"></rect><g id="SvgjsG1009" transform="translate(601,25)"><path id="SvgjsPath1010" d="M 0 0L 186 0L 186 43L 0 43Z" stroke="none" fill="none"></path><g id="SvgjsG1011"><text id="SvgjsText1012" font-family="微软雅黑" text-anchor="middle" font-size="27px" width="186px" fill="#323232" font-weight="700" align="middle" lineHeight="125%" anchor="middle" family="微软雅黑" size="27px" weight="700" font-style="" opacity="1" y="-0.375" transform="rotate(0)"><tspan id="SvgjsTspan1013" dy="33" x="93"><tspan id="SvgjsTspan1014" style="text-decoration:;">Mark-Copy</tspan></tspan></text></g></g><g id="SvgjsG1015" transform="translate(375,136)"><path id="SvgjsPath1016" d="M 0 0L 52 0L 52 34L 0 34Z" stroke="rgba(50,50,50,1)" stroke-width="1" fill-opacity="1" fill="#ffffcc"></path><g id="SvgjsG1017"><text id="SvgjsText1018" font-family="微软雅黑" text-anchor="middle" font-size="13px" width="32px" fill="#323232" font-weight="400" align="middle" lineHeight="125%" anchor="middle" family="微软雅黑" size="13px" weight="400" font-style="" opacity="1" y="7.375" transform="rotate(0)"></text></g></g><g id="SvgjsG1019" transform="translate(427,136)"><path id="SvgjsPath1020" d="M 0 0L 52 0L 52 34L 0 34Z" stroke="rgba(50,50,50,1)" stroke-width="1" fill-opacity="1" fill="#cfcfcf"></path><g id="SvgjsG1021"><text id="SvgjsText1022" font-family="微软雅黑" text-anchor="middle" font-size="13px" width="32px" fill="#323232" font-weight="400" align="middle" lineHeight="125%" anchor="middle" family="微软雅黑" size="13px" weight="400" font-style="" opacity="1" y="7.375" transform="rotate(0)"></text></g></g><g id="SvgjsG1023" transform="translate(479,136)"><path id="SvgjsPath1024" d="M 0 0L 52 0L 52 34L 0 34Z" stroke="rgba(50,50,50,1)" stroke-width="1" fill-opacity="1" fill="#cfcfcf"></path><g id="SvgjsG1025"><text id="SvgjsText1026" font-family="微软雅黑" text-anchor="middle" font-size="13px" width="32px" fill="#323232" font-weight="400" align="middle" lineHeight="125%" anchor="middle" family="微软雅黑" size="13px" weight="400" font-style="" opacity="1" y="7.375" transform="rotate(0)"></text></g></g><g id="SvgjsG1027" transform="translate(531,136)"><path id="SvgjsPath1028" d="M 0 0L 52 0L 52 34L 0 34Z" stroke="rgba(50,50,50,1)" stroke-width="1" fill-opacity="1" fill="#a1a1a1"></path><g id="SvgjsG1029"><text id="SvgjsText1030" font-family="微软雅黑" text-anchor="middle" font-size="13px" width="32px" fill="#323232" font-weight="400" align="middle" lineHeight="125%" anchor="middle" family="微软雅黑" size="13px" weight="400" font-style="" opacity="1" y="7.375" transform="rotate(0)"></text></g></g><g id="SvgjsG1031" transform="translate(583,136)"><path id="SvgjsPath1032" d="M 0 0L 52 0L 52 34L 0 34Z" stroke="rgba(50,50,50,1)" stroke-width="1" fill-opacity="1" fill="#a1a1a1"></path><g id="SvgjsG1033"><text id="SvgjsText1034" font-family="微软雅黑" text-anchor="middle" font-size="13px" width="32px" fill="#323232" font-weight="400" align="middle" lineHeight="125%" anchor="middle" family="微软雅黑" size="13px" weight="400" font-style="" opacity="1" y="7.375" transform="rotate(0)"></text></g></g><g id="SvgjsG1035" transform="translate(635,136)"><path id="SvgjsPath1036" d="M 0 0L 52 0L 52 34L 0 34Z" stroke="rgba(50,50,50,1)" stroke-width="1" fill-opacity="1" fill="#a1a1a1"></path><g id="SvgjsG1037"><text id="SvgjsText1038" font-family="微软雅黑" text-anchor="middle" font-size="13px" width="32px" fill="#323232" font-weight="400" align="middle" lineHeight="125%" anchor="middle" family="微软雅黑" size="13px" weight="400" font-style="" opacity="1" y="7.375" transform="rotate(0)"></text></g></g><g id="SvgjsG1039" transform="translate(375,170)"><path id="SvgjsPath1040" d="M 0 0L 52 0L 52 34L 0 34Z" stroke="rgba(50,50,50,1)" stroke-width="1" fill-opacity="1" fill="#cfcfcf"></path><g id="SvgjsG1041"><text id="SvgjsText1042" font-family="微软雅黑" text-anchor="middle" font-size="13px" width="32px" fill="#323232" font-weight="400" align="middle" lineHeight="125%" anchor="middle" family="微软雅黑" size="13px" weight="400" font-style="" opacity="1" y="7.375" transform="rotate(0)"></text></g></g><g id="SvgjsG1043" transform="translate(427,170)"><path id="SvgjsPath1044" d="M 0 0L 52 0L 52 34L 0 34Z" stroke="rgba(50,50,50,1)" stroke-width="1" fill-opacity="1" fill="#ffffcc"></path><g id="SvgjsG1045"><text id="SvgjsText1046" font-family="微软雅黑" text-anchor="middle" font-size="13px" width="32px" fill="#323232" font-weight="400" align="middle" lineHeight="125%" anchor="middle" family="微软雅黑" size="13px" weight="400" font-style="" opacity="1" y="7.375" transform="rotate(0)"></text></g></g><g id="SvgjsG1047" transform="translate(479,170)"><path id="SvgjsPath1048" d="M 0 0L 52 0L 52 34L 0 34Z" stroke="rgba(50,50,50,1)" stroke-width="1" fill-opacity="1" fill="#ffffcc"></path><g id="SvgjsG1049"><text id="SvgjsText1050" font-family="微软雅黑" text-anchor="middle" font-size="13px" width="32px" fill="#323232" font-weight="400" align="middle" lineHeight="125%" anchor="middle" family="微软雅黑" size="13px" weight="400" font-style="" opacity="1" y="7.375" transform="rotate(0)"></text></g></g><g id="SvgjsG1051" transform="translate(531,170)"><path id="SvgjsPath1052" d="M 0 0L 52 0L 52 34L 0 34Z" stroke="rgba(50,50,50,1)" stroke-width="1" fill-opacity="1" fill="#a1a1a1"></path><g id="SvgjsG1053"><text id="SvgjsText1054" font-family="微软雅黑" text-anchor="middle" font-size="13px" width="32px" fill="#323232" font-weight="400" align="middle" lineHeight="125%" anchor="middle" family="微软雅黑" size="13px" weight="400" font-style="" opacity="1" y="7.375" transform="rotate(0)"></text></g></g><g id="SvgjsG1055" transform="translate(583,170)"><path id="SvgjsPath1056" d="M 0 0L 52 0L 52 34L 0 34Z" stroke="rgba(50,50,50,1)" stroke-width="1" fill-opacity="1" fill="#a1a1a1"></path><g id="SvgjsG1057"><text id="SvgjsText1058" font-family="微软雅黑" text-anchor="middle" font-size="13px" width="32px" fill="#323232" font-weight="400" align="middle" lineHeight="125%" anchor="middle" family="微软雅黑" size="13px" weight="400" font-style="" opacity="1" y="7.375" transform="rotate(0)"></text></g></g><g id="SvgjsG1059" transform="translate(635,170)"><path id="SvgjsPath1060" d="M 0 0L 52 0L 52 34L 0 34Z" stroke="rgba(50,50,50,1)" stroke-width="1" fill-opacity="1" fill="#a1a1a1"></path><g id="SvgjsG1061"><text id="SvgjsText1062" font-family="微软雅黑" text-anchor="middle" font-size="13px" width="32px" fill="#323232" font-weight="400" align="middle" lineHeight="125%" anchor="middle" family="微软雅黑" size="13px" weight="400" font-style="" opacity="1" y="7.375" transform="rotate(0)"></text></g></g><g id="SvgjsG1063" transform="translate(375,204)"><path id="SvgjsPath1064" d="M 0 0L 52 0L 52 34L 0 34Z" stroke="rgba(50,50,50,1)" stroke-width="1" fill-opacity="1" fill="#ffffcc"></path><g id="SvgjsG1065"><text id="SvgjsText1066" font-family="微软雅黑" text-anchor="middle" font-size="13px" width="32px" fill="#323232" font-weight="400" align="middle" lineHeight="125%" anchor="middle" family="微软雅黑" size="13px" weight="400" font-style="" opacity="1" y="7.375" transform="rotate(0)"></text></g></g><g id="SvgjsG1067" transform="translate(427,204)"><path id="SvgjsPath1068" d="M 0 0L 52 0L 52 34L 0 34Z" stroke="rgba(50,50,50,1)" stroke-width="1" fill-opacity="1" fill="#ffffff"></path><g id="SvgjsG1069"><text id="SvgjsText1070" font-family="微软雅黑" text-anchor="middle" font-size="13px" width="32px" fill="#323232" font-weight="400" align="middle" lineHeight="125%" anchor="middle" family="微软雅黑" size="13px" weight="400" font-style="" opacity="1" y="7.375" transform="rotate(0)"></text></g></g><g id="SvgjsG1071" transform="translate(479,204)"><path id="SvgjsPath1072" d="M 0 0L 52 0L 52 34L 0 34Z" stroke="rgba(50,50,50,1)" stroke-width="1" fill-opacity="1" fill="#ffffcc"></path><g id="SvgjsG1073"><text id="SvgjsText1074" font-family="微软雅黑" text-anchor="middle" font-size="13px" width="32px" fill="#323232" font-weight="400" align="middle" lineHeight="125%" anchor="middle" family="微软雅黑" size="13px" weight="400" font-style="" opacity="1" y="7.375" transform="rotate(0)"></text></g></g><g id="SvgjsG1075" transform="translate(531,204)"><path id="SvgjsPath1076" d="M 0 0L 52 0L 52 34L 0 34Z" stroke="rgba(50,50,50,1)" stroke-width="1" fill-opacity="1" fill="#a1a1a1"></path><g id="SvgjsG1077"><text id="SvgjsText1078" font-family="微软雅黑" text-anchor="middle" font-size="13px" width="32px" fill="#323232" font-weight="400" align="middle" lineHeight="125%" anchor="middle" family="微软雅黑" size="13px" weight="400" font-style="" opacity="1" y="7.375" transform="rotate(0)"></text></g></g><g id="SvgjsG1079" transform="translate(583,204)"><path id="SvgjsPath1080" d="M 0 0L 52 0L 52 34L 0 34Z" stroke="rgba(50,50,50,1)" stroke-width="1" fill-opacity="1" fill="#a1a1a1"></path><g id="SvgjsG1081"><text id="SvgjsText1082" font-family="微软雅黑" text-anchor="middle" font-size="13px" width="32px" fill="#323232" font-weight="400" align="middle" lineHeight="125%" anchor="middle" family="微软雅黑" size="13px" weight="400" font-style="" opacity="1" y="7.375" transform="rotate(0)"></text></g></g><g id="SvgjsG1083" transform="translate(635,204)"><path id="SvgjsPath1084" d="M 0 0L 52 0L 52 34L 0 34Z" stroke="rgba(50,50,50,1)" stroke-width="1" fill-opacity="1" fill="#a1a1a1"></path><g id="SvgjsG1085"><text id="SvgjsText1086" font-family="微软雅黑" text-anchor="middle" font-size="13px" width="32px" fill="#323232" font-weight="400" align="middle" lineHeight="125%" anchor="middle" family="微软雅黑" size="13px" weight="400" font-style="" opacity="1" y="7.375" transform="rotate(0)"></text></g></g><g id="SvgjsG1087" transform="translate(475,96)"><path id="SvgjsPath1088" d="M 0 0L 120 0L 120 40L 0 40Z" stroke="none" fill="none"></path><g id="SvgjsG1089"><text id="SvgjsText1090" font-family="微软雅黑" text-anchor="middle" font-size="18px" width="120px" fill="#323232" font-weight="700" align="middle" lineHeight="125%" anchor="middle" family="微软雅黑" size="18px" weight="700" font-style="" opacity="1" y="6.75" transform="rotate(0)"><tspan id="SvgjsTspan1091" dy="22" x="60"><tspan id="SvgjsTspan1092" style="text-decoration:;">Before GC</tspan></tspan></text></g></g><g id="SvgjsG1093" transform="translate(475,289)"><path id="SvgjsPath1094" d="M 0 0L 120 0L 120 40L 0 40Z" stroke="none" fill="none"></path><g id="SvgjsG1095"><text id="SvgjsText1096" font-family="微软雅黑" text-anchor="middle" font-size="19px" width="120px" fill="#323232" font-weight="700" align="middle" lineHeight="125%" anchor="middle" family="微软雅黑" size="19px" weight="700" font-style="" opacity="1" y="6.125" transform="rotate(0)"><tspan id="SvgjsTspan1097" dy="23" x="60"><tspan id="SvgjsTspan1098" style="text-decoration:;">After GC</tspan></tspan></text></g></g><g id="SvgjsG1099" transform="translate(531,329)"><path id="SvgjsPath1100" d="M 0 0L 52 0L 52 34L 0 34Z" stroke="rgba(50,50,50,1)" stroke-width="1" fill-opacity="1" fill="#ffffcc"></path><g id="SvgjsG1101"><text id="SvgjsText1102" font-family="微软雅黑" text-anchor="middle" font-size="13px" width="32px" fill="#323232" font-weight="400" align="middle" lineHeight="125%" anchor="middle" family="微软雅黑" size="13px" weight="400" font-style="" opacity="1" y="7.375" transform="rotate(0)"></text></g></g><g id="SvgjsG1103" transform="translate(583,329)"><path id="SvgjsPath1104" d="M 0 0L 52 0L 52 34L 0 34Z" stroke="rgba(50,50,50,1)" stroke-width="1" fill-opacity="1" fill="#ffffcc"></path><g id="SvgjsG1105"><text id="SvgjsText1106" font-family="微软雅黑" text-anchor="middle" font-size="13px" width="32px" fill="#323232" font-weight="400" align="middle" lineHeight="125%" anchor="middle" family="微软雅黑" size="13px" weight="400" font-style="" opacity="1" y="7.375" transform="rotate(0)"></text></g></g><g id="SvgjsG1107" transform="translate(635,329)"><path id="SvgjsPath1108" d="M 0 0L 52 0L 52 34L 0 34Z" stroke="rgba(50,50,50,1)" stroke-width="1" fill-opacity="1" fill="#ffffcc"></path><g id="SvgjsG1109"><text id="SvgjsText1110" font-family="微软雅黑" text-anchor="middle" font-size="13px" width="32px" fill="#323232" font-weight="400" align="middle" lineHeight="125%" anchor="middle" family="微软雅黑" size="13px" weight="400" font-style="" opacity="1" y="7.375" transform="rotate(0)"></text></g></g><g id="SvgjsG1111" transform="translate(375,363)"><path id="SvgjsPath1112" d="M 0 0L 52 0L 52 34L 0 34Z" stroke="rgba(50,50,50,1)" stroke-width="1" fill-opacity="1" fill="#a1a1a1"></path><g id="SvgjsG1113"><text id="SvgjsText1114" font-family="微软雅黑" text-anchor="middle" font-size="13px" width="32px" fill="#323232" font-weight="400" align="middle" lineHeight="125%" anchor="middle" family="微软雅黑" size="13px" weight="400" font-style="" opacity="1" y="7.375" transform="rotate(0)"></text></g></g><g id="SvgjsG1115" transform="translate(427,363)"><path id="SvgjsPath1116" d="M 0 0L 52 0L 52 34L 0 34Z" stroke="rgba(50,50,50,1)" stroke-width="1" fill-opacity="1" fill="#a1a1a1"></path><g id="SvgjsG1117"><text id="SvgjsText1118" font-family="微软雅黑" text-anchor="middle" font-size="13px" width="32px" fill="#323232" font-weight="400" align="middle" lineHeight="125%" anchor="middle" family="微软雅黑" size="13px" weight="400" font-style="" opacity="1" y="7.375" transform="rotate(0)"></text></g></g><g id="SvgjsG1119" transform="translate(479,363)"><path id="SvgjsPath1120" d="M 0 0L 52 0L 52 34L 0 34Z" stroke="rgba(50,50,50,1)" stroke-width="1" fill-opacity="1" fill="#a1a1a1"></path><g id="SvgjsG1121"><text id="SvgjsText1122" font-family="微软雅黑" text-anchor="middle" font-size="13px" width="32px" fill="#323232" font-weight="400" align="middle" lineHeight="125%" anchor="middle" family="微软雅黑" size="13px" weight="400" font-style="" opacity="1" y="7.375" transform="rotate(0)"></text></g></g><g id="SvgjsG1123" transform="translate(635,363)"><path id="SvgjsPath1124" d="M 0 0L 52 0L 52 34L 0 34Z" stroke="rgba(50,50,50,1)" stroke-width="1" fill-opacity="1" fill="#ffffff"></path><g id="SvgjsG1125"><text id="SvgjsText1126" font-family="微软雅黑" text-anchor="middle" font-size="13px" width="32px" fill="#323232" font-weight="400" align="middle" lineHeight="125%" anchor="middle" family="微软雅黑" size="13px" weight="400" font-style="" opacity="1" y="7.375" transform="rotate(0)"></text></g></g><g id="SvgjsG1127" transform="translate(375,397)"><path id="SvgjsPath1128" d="M 0 0L 52 0L 52 34L 0 34Z" stroke="rgba(50,50,50,1)" stroke-width="1" fill-opacity="1" fill="#a1a1a1"></path><g id="SvgjsG1129"><text id="SvgjsText1130" font-family="微软雅黑" text-anchor="middle" font-size="13px" width="32px" fill="#323232" font-weight="400" align="middle" lineHeight="125%" anchor="middle" family="微软雅黑" size="13px" weight="400" font-style="" opacity="1" y="7.375" transform="rotate(0)"></text></g></g><g id="SvgjsG1131" transform="translate(427,397)"><path id="SvgjsPath1132" d="M 0 0L 52 0L 52 34L 0 34Z" stroke="rgba(50,50,50,1)" stroke-width="1" fill-opacity="1" fill="#a1a1a1"></path><g id="SvgjsG1133"><text id="SvgjsText1134" font-family="微软雅黑" text-anchor="middle" font-size="13px" width="32px" fill="#323232" font-weight="400" align="middle" lineHeight="125%" anchor="middle" family="微软雅黑" size="13px" weight="400" font-style="" opacity="1" y="7.375" transform="rotate(0)"></text></g></g><g id="SvgjsG1135" transform="translate(479,397)"><path id="SvgjsPath1136" d="M 0 0L 52 0L 52 34L 0 34Z" stroke="rgba(50,50,50,1)" stroke-width="1" fill-opacity="1" fill="#a1a1a1"></path><g id="SvgjsG1137"><text id="SvgjsText1138" font-family="微软雅黑" text-anchor="middle" font-size="13px" width="32px" fill="#323232" font-weight="400" align="middle" lineHeight="125%" anchor="middle" family="微软雅黑" size="13px" weight="400" font-style="" opacity="1" y="7.375" transform="rotate(0)"></text></g></g><g id="SvgjsG1139" transform="translate(531,397)"><path id="SvgjsPath1140" d="M 0 0L 52 0L 52 34L 0 34Z" stroke="rgba(50,50,50,1)" stroke-width="1" fill-opacity="1" fill="#ffffff"></path><g id="SvgjsG1141"><text id="SvgjsText1142" font-family="微软雅黑" text-anchor="middle" font-size="13px" width="32px" fill="#323232" font-weight="400" align="middle" lineHeight="125%" anchor="middle" family="微软雅黑" size="13px" weight="400" font-style="" opacity="1" y="7.375" transform="rotate(0)"></text></g></g><g id="SvgjsG1143" transform="translate(635,397)"><path id="SvgjsPath1144" d="M 0 0L 52 0L 52 34L 0 34Z" stroke="rgba(50,50,50,1)" stroke-width="1" fill-opacity="1" fill="#ffffff"></path><g id="SvgjsG1145"><text id="SvgjsText1146" font-family="微软雅黑" text-anchor="middle" font-size="13px" width="32px" fill="#323232" font-weight="400" align="middle" lineHeight="125%" anchor="middle" family="微软雅黑" size="13px" weight="400" font-style="" opacity="1" y="7.375" transform="rotate(0)"></text></g></g><g id="SvgjsG1147" transform="translate(375,329)"><path id="SvgjsPath1148" d="M 0 0L 52 0L 52 34L 0 34Z" stroke="rgba(50,50,50,1)" stroke-width="1" fill-opacity="1" fill="#a1a1a1"></path><g id="SvgjsG1149"><text id="SvgjsText1150" font-family="微软雅黑" text-anchor="middle" font-size="13px" width="32px" fill="#323232" font-weight="400" align="middle" lineHeight="125%" anchor="middle" family="微软雅黑" size="13px" weight="400" font-style="" opacity="1" y="7.375" transform="rotate(0)"></text></g></g><g id="SvgjsG1151" transform="translate(427,329)"><path id="SvgjsPath1152" d="M 0 0L 52 0L 52 34L 0 34Z" stroke="rgba(50,50,50,1)" stroke-width="1" fill-opacity="1" fill="#a1a1a1"></path><g id="SvgjsG1153"><text id="SvgjsText1154" font-family="微软雅黑" text-anchor="middle" font-size="13px" width="32px" fill="#323232" font-weight="400" align="middle" lineHeight="125%" anchor="middle" family="微软雅黑" size="13px" weight="400" font-style="" opacity="1" y="7.375" transform="rotate(0)"></text></g></g><g id="SvgjsG1155" transform="translate(479,329)"><path id="SvgjsPath1156" d="M 0 0L 52 0L 52 34L 0 34Z" stroke="rgba(50,50,50,1)" stroke-width="1" fill-opacity="1" fill="#a1a1a1"></path><g id="SvgjsG1157"><text id="SvgjsText1158" font-family="微软雅黑" text-anchor="middle" font-size="13px" width="32px" fill="#323232" font-weight="400" align="middle" lineHeight="125%" anchor="middle" family="微软雅黑" size="13px" weight="400" font-style="" opacity="1" y="7.375" transform="rotate(0)"></text></g></g><g id="SvgjsG1159" transform="translate(531,363)"><path id="SvgjsPath1160" d="M 0 0L 52 0L 52 34L 0 34Z" stroke="rgba(50,50,50,1)" stroke-width="1" fill-opacity="1" fill="#ffffcc"></path><g id="SvgjsG1161"><text id="SvgjsText1162" font-family="微软雅黑" text-anchor="middle" font-size="13px" width="32px" fill="#323232" font-weight="400" align="middle" lineHeight="125%" anchor="middle" family="微软雅黑" size="13px" weight="400" font-style="" opacity="1" y="7.375" transform="rotate(0)"></text></g></g><g id="SvgjsG1163" transform="translate(583,363)"><path id="SvgjsPath1164" d="M 0 0L 52 0L 52 34L 0 34Z" stroke="rgba(50,50,50,1)" stroke-width="1" fill-opacity="1" fill="#ffffcc"></path><g id="SvgjsG1165"><text id="SvgjsText1166" font-family="微软雅黑" text-anchor="middle" font-size="13px" width="32px" fill="#323232" font-weight="400" align="middle" lineHeight="125%" anchor="middle" family="微软雅黑" size="13px" weight="400" font-style="" opacity="1" y="7.375" transform="rotate(0)"></text></g></g><g id="SvgjsG1167" transform="translate(583,397)"><path id="SvgjsPath1168" d="M 0 0L 52 0L 52 34L 0 34Z" stroke="rgba(50,50,50,1)" stroke-width="1" fill-opacity="1" fill="#ffffff"></path><g id="SvgjsG1169"><text id="SvgjsText1170" font-family="微软雅黑" text-anchor="middle" font-size="13px" width="32px" fill="#323232" font-weight="400" align="middle" lineHeight="125%" anchor="middle" family="微软雅黑" size="13px" weight="400" font-style="" opacity="1" y="7.375" transform="rotate(0)"></text></g></g><g id="SvgjsG1171" transform="translate(25,152)"><path id="SvgjsPath1172" d="M 0 4Q 0 0 4 0L 135 0Q 139 0 139 4L 139 50Q 139 54 135 54L 4 54Q 0 54 0 50Z" stroke="rgba(50,50,50,1)" stroke-width="2" fill-opacity="1" fill="#ffffff"></path><g id="SvgjsG1173"><text id="SvgjsText1174" font-family="微软雅黑" text-anchor="middle" font-size="19px" width="119px" fill="#323232" font-weight="700" align="middle" lineHeight="125%" anchor="middle" family="微软雅黑" size="19px" weight="700" font-style="" opacity="1" y="13.125" transform="rotate(0)"><tspan id="SvgjsTspan1175" dy="23" x="69.5"><tspan id="SvgjsTspan1176" style="text-decoration:;">Mark</tspan></tspan></text></g></g><g id="SvgjsG1177" transform="translate(25,295)"><path id="SvgjsPath1178" d="M 0 4Q 0 0 4 0L 135 0Q 139 0 139 4L 139 50Q 139 54 135 54L 4 54Q 0 54 0 50Z" stroke="rgba(50,50,50,1)" stroke-width="2" fill-opacity="1" fill="#ffffff"></path><g id="SvgjsG1179"><text id="SvgjsText1180" font-family="微软雅黑" text-anchor="middle" font-size="19px" width="119px" fill="#323232" font-weight="700" align="middle" lineHeight="125%" anchor="middle" family="微软雅黑" size="19px" weight="700" font-style="" opacity="1" y="13.125" transform="rotate(0)"><tspan id="SvgjsTspan1181" dy="23" x="69.5"><tspan id="SvgjsTspan1182" style="text-decoration:;">Copy</tspan></tspan></text></g></g><g id="SvgjsG1183"><path id="SvgjsPath1184" d="M94.5 206L94.5 250.5L94.5 250.5L94.5 295" stroke="#323232" stroke-width="2" fill="none" marker-end="url(#SvgjsMarker1185)"></path></g><g id="SvgjsG1187" transform="translate(336,463)"><path id="SvgjsPath1188" d="M 0 0L 77 0L 77 34L 0 34Z" stroke="rgba(50,50,50,1)" stroke-width="1" fill-opacity="1" fill="#ffffff"></path><g id="SvgjsG1189"><text id="SvgjsText1190" font-family="微软雅黑" text-anchor="middle" font-size="13px" width="57px" fill="#323232" font-weight="700" align="middle" lineHeight="125%" anchor="middle" family="微软雅黑" size="13px" weight="700" font-style="" opacity="1" y="7.375" transform="rotate(0)"><tspan id="SvgjsTspan1191" dy="16" x="38.5"><tspan id="SvgjsTspan1192" style="text-decoration:;">Available</tspan></tspan></text></g></g><g id="SvgjsG1193" transform="translate(440,463)"><path id="SvgjsPath1194" d="M 0 0L 87 0L 87 34L 0 34Z" stroke="rgba(50,50,50,1)" stroke-width="1" fill-opacity="1" fill="#ffffcc"></path><g id="SvgjsG1195"><text id="SvgjsText1196" font-family="微软雅黑" text-anchor="middle" font-size="13px" width="67px" fill="#323232" font-weight="700" align="middle" lineHeight="125%" anchor="middle" family="微软雅黑" size="13px" weight="700" font-style="" opacity="1" y="7.375" transform="rotate(0)"><tspan id="SvgjsTspan1197" dy="16" x="43.5"><tspan id="SvgjsTspan1198" style="text-decoration:;">Survivor</tspan></tspan></text></g></g><g id="SvgjsG1199" transform="translate(549,463)"><path id="SvgjsPath1200" d="M 0 0L 89 0L 89 34L 0 34Z" stroke="rgba(50,50,50,1)" stroke-width="1" fill-opacity="1" fill="#cfcfcf"></path><g id="SvgjsG1201"><text id="SvgjsText1202" font-family="微软雅黑" text-anchor="middle" font-size="13px" width="69px" fill="#323232" font-weight="700" align="middle" lineHeight="125%" anchor="middle" family="微软雅黑" size="13px" weight="700" font-style="" opacity="1" y="7.375" transform="rotate(0)"><tspan id="SvgjsTspan1203" dy="16" x="44.5"><tspan id="SvgjsTspan1204" style="text-decoration:;">ToRecycle</tspan></tspan></text></g></g><g id="SvgjsG1205" transform="translate(664,463)"><path id="SvgjsPath1206" d="M 0 0L 89 0L 89 34L 0 34Z" stroke="rgba(50,50,50,1)" stroke-width="1" fill-opacity="1" fill="#8a8a8a"></path><g id="SvgjsG1207"><text id="SvgjsText1208" font-family="微软雅黑" text-anchor="middle" font-size="13px" width="69px" fill="#ffffff" font-weight="700" align="middle" lineHeight="125%" anchor="middle" family="微软雅黑" size="13px" weight="700" font-style="" opacity="1" y="7.375" transform="rotate(0)"><tspan id="SvgjsTspan1209" dy="16" x="44.5"><tspan id="SvgjsTspan1210" style="text-decoration:;">Reserve</tspan></tspan></text></g></g><g id="SvgjsG1211" transform="translate(926.5,329)"><path id="SvgjsPath1212" d="M 0 4Q 0 0 4 0L 392.5 0Q 396.5 0 396.5 4L 396.5 150Q 396.5 154 392.5 154L 4 154Q 0 154 0 150Z" stroke="rgba(50,50,50,1)" stroke-width="2" fill-opacity="1" fill="#ffe6cc"></path><g id="SvgjsG1213"><text id="SvgjsText1214" font-family="微软雅黑" text-anchor="middle" font-size="19px" width="377px" fill="#323232" font-weight="700" align="top" lineHeight="125%" anchor="middle" family="微软雅黑" size="19px" weight="700" font-style="" opacity="1" y="-2.375" transform="rotate(0)"><tspan id="SvgjsTspan1215" dy="23" x="198.5"><tspan id="SvgjsTspan1216" style="text-decoration:;">Disadvantages</tspan></tspan></text></g></g><g id="SvgjsG1217" transform="translate(916,114.5)"><path id="SvgjsPath1218" d="M 0 4Q 0 0 4 0L 403 0Q 407 0 407 4L 407 176.5Q 407 180.5 403 180.5L 4 180.5Q 0 180.5 0 176.5Z" stroke="rgba(50,50,50,1)" stroke-width="2" fill-opacity="1" fill="#ffe6cc"></path><g id="SvgjsG1219"><text id="SvgjsText1220" font-family="微软雅黑" text-anchor="middle" font-size="19px" width="387px" fill="#323232" font-weight="700" align="top" lineHeight="125%" anchor="middle" family="微软雅黑" size="19px" weight="700" font-style="" opacity="1" y="-2.375" transform="rotate(0)"><tspan id="SvgjsTspan1221" dy="23" x="203.5"><tspan id="SvgjsTspan1222" style="text-decoration:;">Advantages</tspan></tspan><tspan id="SvgjsTspan1223" dy="23" x="203.5"><tspan id="SvgjsTspan1224" style="text-decoration:;"> </tspan></tspan><tspan id="SvgjsTspan1225" dy="23" x="203.5"><tspan id="SvgjsTspan1226" style="text-decoration:;"> </tspan></tspan></text></g></g><g id="SvgjsG1227" transform="translate(926.5,121.25)"><path id="SvgjsPath1228" d="M 0 0L 380 0L 380 167L 0 167Z" stroke="none" fill="none"></path><g id="SvgjsG1229"><text id="SvgjsText1230" font-family="微软雅黑" text-anchor="start" font-size="13px" width="380px" fill="#323232" font-weight="400" align="middle" lineHeight="125%" anchor="start" family="微软雅黑" size="13px" weight="400" font-style="" opacity="1" y="17.875" transform="rotate(0)"><tspan id="SvgjsTspan1231" dy="16" x="0"><tspan id="SvgjsTspan1232" style="text-decoration:;">1. Most objects in the heap only exist a short period of time </tspan></tspan><tspan id="SvgjsTspan1233" dy="16" x="0"><tspan id="SvgjsTspan1234" style="text-decoration:;">according to the IBM investigation (98% objects in the </tspan></tspan><tspan id="SvgjsTspan1235" dy="16" x="0"><tspan id="SvgjsTspan1236" style="text-decoration:;">YoungGen cannot survive first-round gc). </tspan><tspan id="SvgjsTspan1237" style="text-decoration:;font-weight: bold;">So only a few parts </tspan></tspan><tspan id="SvgjsTspan1238" dy="16" x="0"><tspan id="SvgjsTspan1239" style="text-decoration:;font-weight: bold;">of objects need to be copied</tspan></tspan><tspan id="SvgjsTspan1240" dy="16" x="0"><tspan id="SvgjsTspan1241" style="text-decoration:;"> </tspan></tspan><tspan id="SvgjsTspan1242" dy="16" x="0"><tspan id="SvgjsTspan1243" style="text-decoration:;">2. </tspan><tspan id="SvgjsTspan1244" style="text-decoration:;font-weight: bold;">The fragment situation will not be a problem.</tspan><tspan id="SvgjsTspan1245" style="text-decoration:;"> Everytime </tspan></tspan><tspan id="SvgjsTspan1246" dy="16" x="0"><tspan id="SvgjsTspan1247" style="text-decoration:;">the whole half of region will be recycled after the copying the </tspan></tspan><tspan id="SvgjsTspan1248" dy="16" x="0"><tspan id="SvgjsTspan1249" style="text-decoration:;">survivors.</tspan></tspan></text></g></g><g id="SvgjsG1250" transform="translate(938,326.25)"><path id="SvgjsPath1251" d="M 0 0L 380 0L 380 167L 0 167Z" stroke="none" fill="none"></path><g id="SvgjsG1252"><text id="SvgjsText1253" font-family="微软雅黑" text-anchor="start" font-size="13px" width="380px" fill="#323232" font-weight="400" align="middle" lineHeight="125%" anchor="start" family="微软雅黑" size="13px" weight="400" font-style="" opacity="1" y="49.875" transform="rotate(0)"><tspan id="SvgjsTspan1254" dy="16" x="0"><tspan id="SvgjsTspan1255" style="text-decoration:;font-weight: bold;">Space Efficiency: Space Waste</tspan></tspan><tspan id="SvgjsTspan1256" dy="16" x="0"><tspan id="SvgjsTspan1257" style="text-decoration:;"> </tspan></tspan><tspan id="SvgjsTspan1258" dy="16" x="0"><tspan id="SvgjsTspan1259" style="text-decoration:;font-weight: bold;">The available space of the memory shrunk into half of </tspan></tspan><tspan id="SvgjsTspan1260" dy="16" x="0"><tspan id="SvgjsTspan1261" style="text-decoration:;font-weight: bold;">previous memory.</tspan></tspan></text></g></g></svg>