<svg id="SvgjsSvg1006" width="1543" height="497" xmlns="http://www.w3.org/2000/svg" version="1.1" xmlns:xlink="http://www.w3.org/1999/xlink" xmlns:svgjs="http://svgjs.com/svgjs"><defs id="SvgjsDefs1007"><marker id="SvgjsMarker1101" markerWidth="16" markerHeight="12" refX="16" refY="6" viewBox="0 0 16 12" orient="auto" markerUnits="userSpaceOnUse" stroke-dasharray="0,0"><path id="SvgjsPath1102" d="M0,2 L14,6 L0,11 L0,2" fill="#323232" stroke="#323232" stroke-width="2"></path></marker></defs><rect id="SvgjsRect1008" width="1543" height="497" fill="#ffffff"></rect><g id="SvgjsG1009" transform="translate(613,25)"><path id="SvgjsPath1010" d="M 0 0L 246 0L 246 33L 0 33Z" stroke="none" fill="none"></path><g id="SvgjsG1011"><text id="SvgjsText1012" font-family="微软雅黑" text-anchor="middle" font-size="27px" width="246px" fill="#323232" font-weight="700" align="middle" lineHeight="125%" anchor="middle" family="微软雅黑" size="27px" weight="700" font-style="" opacity="1" y="-5.375" transform="rotate(0)"><tspan id="SvgjsTspan1013" dy="33" x="123"><tspan id="SvgjsTspan1014" style="text-decoration:;">Mark - Sweep</tspan></tspan></text></g></g><g id="SvgjsG1015" transform="translate(350,110)"><path id="SvgjsPath1016" d="M 0 0L 52 0L 52 34L 0 34Z" stroke="rgba(50,50,50,1)" stroke-width="1" fill-opacity="1" fill="#cfcfcf"></path><g id="SvgjsG1017"><text id="SvgjsText1018" font-family="微软雅黑" text-anchor="middle" font-size="13px" width="32px" fill="#323232" font-weight="400" align="middle" lineHeight="125%" anchor="middle" family="微软雅黑" size="13px" weight="400" font-style="" opacity="1" y="7.375" transform="rotate(0)"></text></g></g><g id="SvgjsG1019" transform="translate(402,110)"><path id="SvgjsPath1020" d="M 0 0L 52 0L 52 34L 0 34Z" stroke="rgba(50,50,50,1)" stroke-width="1" fill-opacity="1" fill="#cfcfcf"></path><g id="SvgjsG1021"><text id="SvgjsText1022" font-family="微软雅黑" text-anchor="middle" font-size="13px" width="32px" fill="#323232" font-weight="400" align="middle" lineHeight="125%" anchor="middle" family="微软雅黑" size="13px" weight="400" font-style="" opacity="1" y="7.375" transform="rotate(0)"></text></g></g><g id="SvgjsG1023" transform="translate(454,110)"><path id="SvgjsPath1024" d="M 0 0L 52 0L 52 34L 0 34Z" stroke="rgba(50,50,50,1)" stroke-width="1" fill-opacity="1" fill="#cfcfcf"></path><g id="SvgjsG1025"><text id="SvgjsText1026" font-family="微软雅黑" text-anchor="middle" font-size="13px" width="32px" fill="#323232" font-weight="400" align="middle" lineHeight="125%" anchor="middle" family="微软雅黑" size="13px" weight="400" font-style="" opacity="1" y="7.375" transform="rotate(0)"></text></g></g><g id="SvgjsG1027" transform="translate(506,110)"><path id="SvgjsPath1028" d="M 0 0L 52 0L 52 34L 0 34Z" stroke="rgba(50,50,50,1)" stroke-width="1" fill-opacity="1" fill="#ffffcc"></path><g id="SvgjsG1029"><text id="SvgjsText1030" font-family="微软雅黑" text-anchor="middle" font-size="13px" width="32px" fill="#323232" font-weight="400" align="middle" lineHeight="125%" anchor="middle" family="微软雅黑" size="13px" weight="400" font-style="" opacity="1" y="7.375" transform="rotate(0)"></text></g></g><g id="SvgjsG1031" transform="translate(558,110)"><path id="SvgjsPath1032" d="M 0 0L 52 0L 52 34L 0 34Z" stroke="rgba(50,50,50,1)" stroke-width="1" fill-opacity="1" fill="#ffffcc"></path><g id="SvgjsG1033"><text id="SvgjsText1034" font-family="微软雅黑" text-anchor="middle" font-size="13px" width="32px" fill="#323232" font-weight="400" align="middle" lineHeight="125%" anchor="middle" family="微软雅黑" size="13px" weight="400" font-style="" opacity="1" y="7.375" transform="rotate(0)"></text></g></g><g id="SvgjsG1035" transform="translate(610,110)"><path id="SvgjsPath1036" d="M 0 0L 52 0L 52 34L 0 34Z" stroke="rgba(50,50,50,1)" stroke-width="1" fill-opacity="1" fill="#ffffcc"></path><g id="SvgjsG1037"><text id="SvgjsText1038" font-family="微软雅黑" text-anchor="middle" font-size="13px" width="32px" fill="#323232" font-weight="400" align="middle" lineHeight="125%" anchor="middle" family="微软雅黑" size="13px" weight="400" font-style="" opacity="1" y="7.375" transform="rotate(0)"></text></g></g><g id="SvgjsG1039" transform="translate(350,144)"><path id="SvgjsPath1040" d="M 0 0L 52 0L 52 34L 0 34Z" stroke="rgba(50,50,50,1)" stroke-width="1" fill-opacity="1" fill="#ffffff"></path><g id="SvgjsG1041"><text id="SvgjsText1042" font-family="微软雅黑" text-anchor="middle" font-size="13px" width="32px" fill="#323232" font-weight="400" align="middle" lineHeight="125%" anchor="middle" family="微软雅黑" size="13px" weight="400" font-style="" opacity="1" y="7.375" transform="rotate(0)"></text></g></g><g id="SvgjsG1043" transform="translate(402,144)"><path id="SvgjsPath1044" d="M 0 0L 52 0L 52 34L 0 34Z" stroke="rgba(50,50,50,1)" stroke-width="1" fill-opacity="1" fill="#ffffcc"></path><g id="SvgjsG1045"><text id="SvgjsText1046" font-family="微软雅黑" text-anchor="middle" font-size="13px" width="32px" fill="#323232" font-weight="400" align="middle" lineHeight="125%" anchor="middle" family="微软雅黑" size="13px" weight="400" font-style="" opacity="1" y="7.375" transform="rotate(0)"></text></g></g><g id="SvgjsG1047" transform="translate(454,144)"><path id="SvgjsPath1048" d="M 0 0L 52 0L 52 34L 0 34Z" stroke="rgba(50,50,50,1)" stroke-width="1" fill-opacity="1" fill="#ffffcc"></path><g id="SvgjsG1049"><text id="SvgjsText1050" font-family="微软雅黑" text-anchor="middle" font-size="13px" width="32px" fill="#323232" font-weight="400" align="middle" lineHeight="125%" anchor="middle" family="微软雅黑" size="13px" weight="400" font-style="" opacity="1" y="7.375" transform="rotate(0)"></text></g></g><g id="SvgjsG1051" transform="translate(506,144)"><path id="SvgjsPath1052" d="M 0 0L 52 0L 52 34L 0 34Z" stroke="rgba(50,50,50,1)" stroke-width="1" fill-opacity="1" fill="#cfcfcf"></path><g id="SvgjsG1053"><text id="SvgjsText1054" font-family="微软雅黑" text-anchor="middle" font-size="13px" width="32px" fill="#323232" font-weight="400" align="middle" lineHeight="125%" anchor="middle" family="微软雅黑" size="13px" weight="400" font-style="" opacity="1" y="7.375" transform="rotate(0)"></text></g></g><g id="SvgjsG1055" transform="translate(558,144)"><path id="SvgjsPath1056" d="M 0 0L 52 0L 52 34L 0 34Z" stroke="rgba(50,50,50,1)" stroke-width="1" fill-opacity="1" fill="#cfcfcf"></path><g id="SvgjsG1057"><text id="SvgjsText1058" font-family="微软雅黑" text-anchor="middle" font-size="13px" width="32px" fill="#323232" font-weight="400" align="middle" lineHeight="125%" anchor="middle" family="微软雅黑" size="13px" weight="400" font-style="" opacity="1" y="7.375" transform="rotate(0)"></text></g></g><g id="SvgjsG1059" transform="translate(610,144)"><path id="SvgjsPath1060" d="M 0 0L 52 0L 52 34L 0 34Z" stroke="rgba(50,50,50,1)" stroke-width="1" fill-opacity="1" fill="#ffffff"></path><g id="SvgjsG1061"><text id="SvgjsText1062" font-family="微软雅黑" text-anchor="middle" font-size="13px" width="32px" fill="#323232" font-weight="400" align="middle" lineHeight="125%" anchor="middle" family="微软雅黑" size="13px" weight="400" font-style="" opacity="1" y="7.375" transform="rotate(0)"></text></g></g><g id="SvgjsG1063" transform="translate(350,178)"><path id="SvgjsPath1064" d="M 0 0L 52 0L 52 34L 0 34Z" stroke="rgba(50,50,50,1)" stroke-width="1" fill-opacity="1" fill="#ffffcc"></path><g id="SvgjsG1065"><text id="SvgjsText1066" font-family="微软雅黑" text-anchor="middle" font-size="13px" width="32px" fill="#323232" font-weight="400" align="middle" lineHeight="125%" anchor="middle" family="微软雅黑" size="13px" weight="400" font-style="" opacity="1" y="7.375" transform="rotate(0)"></text></g></g><g id="SvgjsG1067" transform="translate(402,178)"><path id="SvgjsPath1068" d="M 0 0L 52 0L 52 34L 0 34Z" stroke="rgba(50,50,50,1)" stroke-width="1" fill-opacity="1" fill="#ffffff"></path><g id="SvgjsG1069"><text id="SvgjsText1070" font-family="微软雅黑" text-anchor="middle" font-size="13px" width="32px" fill="#323232" font-weight="400" align="middle" lineHeight="125%" anchor="middle" family="微软雅黑" size="13px" weight="400" font-style="" opacity="1" y="7.375" transform="rotate(0)"></text></g></g><g id="SvgjsG1071" transform="translate(454,178)"><path id="SvgjsPath1072" d="M 0 0L 52 0L 52 34L 0 34Z" stroke="rgba(50,50,50,1)" stroke-width="1" fill-opacity="1" fill="#ffffcc"></path><g id="SvgjsG1073"><text id="SvgjsText1074" font-family="微软雅黑" text-anchor="middle" font-size="13px" width="32px" fill="#323232" font-weight="400" align="middle" lineHeight="125%" anchor="middle" family="微软雅黑" size="13px" weight="400" font-style="" opacity="1" y="7.375" transform="rotate(0)"></text></g></g><g id="SvgjsG1075" transform="translate(506,178)"><path id="SvgjsPath1076" d="M 0 0L 52 0L 52 34L 0 34Z" stroke="rgba(50,50,50,1)" stroke-width="1" fill-opacity="1" fill="#ffffff"></path><g id="SvgjsG1077"><text id="SvgjsText1078" font-family="微软雅黑" text-anchor="middle" font-size="13px" width="32px" fill="#323232" font-weight="400" align="middle" lineHeight="125%" anchor="middle" family="微软雅黑" size="13px" weight="400" font-style="" opacity="1" y="7.375" transform="rotate(0)"></text></g></g><g id="SvgjsG1079" transform="translate(558,178)"><path id="SvgjsPath1080" d="M 0 0L 52 0L 52 34L 0 34Z" stroke="rgba(50,50,50,1)" stroke-width="1" fill-opacity="1" fill="#cfcfcf"></path><g id="SvgjsG1081"><text id="SvgjsText1082" font-family="微软雅黑" text-anchor="middle" font-size="13px" width="32px" fill="#323232" font-weight="400" align="middle" lineHeight="125%" anchor="middle" family="微软雅黑" size="13px" weight="400" font-style="" opacity="1" y="7.375" transform="rotate(0)"></text></g></g><g id="SvgjsG1083" transform="translate(610,178)"><path id="SvgjsPath1084" d="M 0 0L 52 0L 52 34L 0 34Z" stroke="rgba(50,50,50,1)" stroke-width="1" fill-opacity="1" fill="#ffffff"></path><g id="SvgjsG1085"><text id="SvgjsText1086" font-family="微软雅黑" text-anchor="middle" font-size="13px" width="32px" fill="#323232" font-weight="400" align="middle" lineHeight="125%" anchor="middle" family="微软雅黑" size="13px" weight="400" font-style="" opacity="1" y="7.375" transform="rotate(0)"></text></g></g><g id="SvgjsG1087" transform="translate(25,157)"><path id="SvgjsPath1088" d="M 0 4Q 0 0 4 0L 135 0Q 139 0 139 4L 139 50Q 139 54 135 54L 4 54Q 0 54 0 50Z" stroke="rgba(50,50,50,1)" stroke-width="2" fill-opacity="1" fill="#ffffff"></path><g id="SvgjsG1089"><text id="SvgjsText1090" font-family="微软雅黑" text-anchor="middle" font-size="19px" width="119px" fill="#323232" font-weight="700" align="middle" lineHeight="125%" anchor="middle" family="微软雅黑" size="19px" weight="700" font-style="" opacity="1" y="13.125" transform="rotate(0)"><tspan id="SvgjsTspan1091" dy="23" x="69.5"><tspan id="SvgjsTspan1092" style="text-decoration:;">Mark</tspan></tspan></text></g></g><g id="SvgjsG1093" transform="translate(25,300)"><path id="SvgjsPath1094" d="M 0 4Q 0 0 4 0L 135 0Q 139 0 139 4L 139 50Q 139 54 135 54L 4 54Q 0 54 0 50Z" stroke="rgba(50,50,50,1)" stroke-width="2" fill-opacity="1" fill="#ffffff"></path><g id="SvgjsG1095"><text id="SvgjsText1096" font-family="微软雅黑" text-anchor="middle" font-size="19px" width="119px" fill="#323232" font-weight="700" align="middle" lineHeight="125%" anchor="middle" family="微软雅黑" size="19px" weight="700" font-style="" opacity="1" y="13.125" transform="rotate(0)"><tspan id="SvgjsTspan1097" dy="23" x="69.5"><tspan id="SvgjsTspan1098" style="text-decoration:;">Sweep</tspan></tspan></text></g></g><g id="SvgjsG1099"><path id="SvgjsPath1100" d="M94.5 211L94.5 255.5L94.5 255.5L94.5 300" stroke="#323232" stroke-width="2" fill="none" marker-end="url(#SvgjsMarker1101)"></path></g><g id="SvgjsG1103" transform="translate(444,70)"><path id="SvgjsPath1104" d="M 0 0L 120 0L 120 40L 0 40Z" stroke="none" fill="none"></path><g id="SvgjsG1105"><text id="SvgjsText1106" font-family="微软雅黑" text-anchor="middle" font-size="18px" width="120px" fill="#323232" font-weight="700" align="middle" lineHeight="125%" anchor="middle" family="微软雅黑" size="18px" weight="700" font-style="" opacity="1" y="6.75" transform="rotate(0)"><tspan id="SvgjsTspan1107" dy="22" x="60"><tspan id="SvgjsTspan1108" style="text-decoration:;">Before GC</tspan></tspan></text></g></g><g id="SvgjsG1109" transform="translate(444,263)"><path id="SvgjsPath1110" d="M 0 0L 120 0L 120 40L 0 40Z" stroke="none" fill="none"></path><g id="SvgjsG1111"><text id="SvgjsText1112" font-family="微软雅黑" text-anchor="middle" font-size="19px" width="120px" fill="#323232" font-weight="700" align="middle" lineHeight="125%" anchor="middle" family="微软雅黑" size="19px" weight="700" font-style="" opacity="1" y="6.125" transform="rotate(0)"><tspan id="SvgjsTspan1113" dy="23" x="60"><tspan id="SvgjsTspan1114" style="text-decoration:;">After GC</tspan></tspan></text></g></g><g id="SvgjsG1115" transform="translate(506,303)"><path id="SvgjsPath1116" d="M 0 0L 52 0L 52 34L 0 34Z" stroke="rgba(50,50,50,1)" stroke-width="1" fill-opacity="1" fill="#ffffcc"></path><g id="SvgjsG1117"><text id="SvgjsText1118" font-family="微软雅黑" text-anchor="middle" font-size="13px" width="32px" fill="#323232" font-weight="400" align="middle" lineHeight="125%" anchor="middle" family="微软雅黑" size="13px" weight="400" font-style="" opacity="1" y="7.375" transform="rotate(0)"></text></g></g><g id="SvgjsG1119" transform="translate(558,303)"><path id="SvgjsPath1120" d="M 0 0L 52 0L 52 34L 0 34Z" stroke="rgba(50,50,50,1)" stroke-width="1" fill-opacity="1" fill="#ffffcc"></path><g id="SvgjsG1121"><text id="SvgjsText1122" font-family="微软雅黑" text-anchor="middle" font-size="13px" width="32px" fill="#323232" font-weight="400" align="middle" lineHeight="125%" anchor="middle" family="微软雅黑" size="13px" weight="400" font-style="" opacity="1" y="7.375" transform="rotate(0)"></text></g></g><g id="SvgjsG1123" transform="translate(610,303)"><path id="SvgjsPath1124" d="M 0 0L 52 0L 52 34L 0 34Z" stroke="rgba(50,50,50,1)" stroke-width="1" fill-opacity="1" fill="#ffffcc"></path><g id="SvgjsG1125"><text id="SvgjsText1126" font-family="微软雅黑" text-anchor="middle" font-size="13px" width="32px" fill="#323232" font-weight="400" align="middle" lineHeight="125%" anchor="middle" family="微软雅黑" size="13px" weight="400" font-style="" opacity="1" y="7.375" transform="rotate(0)"></text></g></g><g id="SvgjsG1127" transform="translate(350,337)"><path id="SvgjsPath1128" d="M 0 0L 52 0L 52 34L 0 34Z" stroke="rgba(50,50,50,1)" stroke-width="1" fill-opacity="1" fill="#ffffff"></path><g id="SvgjsG1129"><text id="SvgjsText1130" font-family="微软雅黑" text-anchor="middle" font-size="13px" width="32px" fill="#323232" font-weight="400" align="middle" lineHeight="125%" anchor="middle" family="微软雅黑" size="13px" weight="400" font-style="" opacity="1" y="7.375" transform="rotate(0)"></text></g></g><g id="SvgjsG1131" transform="translate(402,337)"><path id="SvgjsPath1132" d="M 0 0L 52 0L 52 34L 0 34Z" stroke="rgba(50,50,50,1)" stroke-width="1" fill-opacity="1" fill="#ffffcc"></path><g id="SvgjsG1133"><text id="SvgjsText1134" font-family="微软雅黑" text-anchor="middle" font-size="13px" width="32px" fill="#323232" font-weight="400" align="middle" lineHeight="125%" anchor="middle" family="微软雅黑" size="13px" weight="400" font-style="" opacity="1" y="7.375" transform="rotate(0)"></text></g></g><g id="SvgjsG1135" transform="translate(454,337)"><path id="SvgjsPath1136" d="M 0 0L 52 0L 52 34L 0 34Z" stroke="rgba(50,50,50,1)" stroke-width="1" fill-opacity="1" fill="#ffffcc"></path><g id="SvgjsG1137"><text id="SvgjsText1138" font-family="微软雅黑" text-anchor="middle" font-size="13px" width="32px" fill="#323232" font-weight="400" align="middle" lineHeight="125%" anchor="middle" family="微软雅黑" size="13px" weight="400" font-style="" opacity="1" y="7.375" transform="rotate(0)"></text></g></g><g id="SvgjsG1139" transform="translate(610,337)"><path id="SvgjsPath1140" d="M 0 0L 52 0L 52 34L 0 34Z" stroke="rgba(50,50,50,1)" stroke-width="1" fill-opacity="1" fill="#ffffff"></path><g id="SvgjsG1141"><text id="SvgjsText1142" font-family="微软雅黑" text-anchor="middle" font-size="13px" width="32px" fill="#323232" font-weight="400" align="middle" lineHeight="125%" anchor="middle" family="微软雅黑" size="13px" weight="400" font-style="" opacity="1" y="7.375" transform="rotate(0)"></text></g></g><g id="SvgjsG1143" transform="translate(350,371)"><path id="SvgjsPath1144" d="M 0 0L 52 0L 52 34L 0 34Z" stroke="rgba(50,50,50,1)" stroke-width="1" fill-opacity="1" fill="#ffffcc"></path><g id="SvgjsG1145"><text id="SvgjsText1146" font-family="微软雅黑" text-anchor="middle" font-size="13px" width="32px" fill="#323232" font-weight="400" align="middle" lineHeight="125%" anchor="middle" family="微软雅黑" size="13px" weight="400" font-style="" opacity="1" y="7.375" transform="rotate(0)"></text></g></g><g id="SvgjsG1147" transform="translate(402,371)"><path id="SvgjsPath1148" d="M 0 0L 52 0L 52 34L 0 34Z" stroke="rgba(50,50,50,1)" stroke-width="1" fill-opacity="1" fill="#ffffff"></path><g id="SvgjsG1149"><text id="SvgjsText1150" font-family="微软雅黑" text-anchor="middle" font-size="13px" width="32px" fill="#323232" font-weight="400" align="middle" lineHeight="125%" anchor="middle" family="微软雅黑" size="13px" weight="400" font-style="" opacity="1" y="7.375" transform="rotate(0)"></text></g></g><g id="SvgjsG1151" transform="translate(454,371)"><path id="SvgjsPath1152" d="M 0 0L 52 0L 52 34L 0 34Z" stroke="rgba(50,50,50,1)" stroke-width="1" fill-opacity="1" fill="#ffffcc"></path><g id="SvgjsG1153"><text id="SvgjsText1154" font-family="微软雅黑" text-anchor="middle" font-size="13px" width="32px" fill="#323232" font-weight="400" align="middle" lineHeight="125%" anchor="middle" family="微软雅黑" size="13px" weight="400" font-style="" opacity="1" y="7.375" transform="rotate(0)"></text></g></g><g id="SvgjsG1155" transform="translate(506,371)"><path id="SvgjsPath1156" d="M 0 0L 52 0L 52 34L 0 34Z" stroke="rgba(50,50,50,1)" stroke-width="1" fill-opacity="1" fill="#ffffff"></path><g id="SvgjsG1157"><text id="SvgjsText1158" font-family="微软雅黑" text-anchor="middle" font-size="13px" width="32px" fill="#323232" font-weight="400" align="middle" lineHeight="125%" anchor="middle" family="微软雅黑" size="13px" weight="400" font-style="" opacity="1" y="7.375" transform="rotate(0)"></text></g></g><g id="SvgjsG1159" transform="translate(610,371)"><path id="SvgjsPath1160" d="M 0 0L 52 0L 52 34L 0 34Z" stroke="rgba(50,50,50,1)" stroke-width="1" fill-opacity="1" fill="#ffffff"></path><g id="SvgjsG1161"><text id="SvgjsText1162" font-family="微软雅黑" text-anchor="middle" font-size="13px" width="32px" fill="#323232" font-weight="400" align="middle" lineHeight="125%" anchor="middle" family="微软雅黑" size="13px" weight="400" font-style="" opacity="1" y="7.375" transform="rotate(0)"></text></g></g><g id="SvgjsG1163" transform="translate(350,438)"><path id="SvgjsPath1164" d="M 0 0L 77 0L 77 34L 0 34Z" stroke="rgba(50,50,50,1)" stroke-width="1" fill-opacity="1" fill="#ffffff"></path><g id="SvgjsG1165"><text id="SvgjsText1166" font-family="微软雅黑" text-anchor="middle" font-size="13px" width="57px" fill="#323232" font-weight="700" align="middle" lineHeight="125%" anchor="middle" family="微软雅黑" size="13px" weight="700" font-style="" opacity="1" y="7.375" transform="rotate(0)"><tspan id="SvgjsTspan1167" dy="16" x="38.5"><tspan id="SvgjsTspan1168" style="text-decoration:;">Available</tspan></tspan></text></g></g><g id="SvgjsG1169" transform="translate(454,438)"><path id="SvgjsPath1170" d="M 0 0L 87 0L 87 34L 0 34Z" stroke="rgba(50,50,50,1)" stroke-width="1" fill-opacity="1" fill="#ffffcc"></path><g id="SvgjsG1171"><text id="SvgjsText1172" font-family="微软雅黑" text-anchor="middle" font-size="13px" width="67px" fill="#323232" font-weight="700" align="middle" lineHeight="125%" anchor="middle" family="微软雅黑" size="13px" weight="700" font-style="" opacity="1" y="7.375" transform="rotate(0)"><tspan id="SvgjsTspan1173" dy="16" x="43.5"><tspan id="SvgjsTspan1174" style="text-decoration:;">Survivor</tspan></tspan></text></g></g><g id="SvgjsG1175" transform="translate(570,438)"><path id="SvgjsPath1176" d="M 0 0L 89 0L 89 34L 0 34Z" stroke="rgba(50,50,50,1)" stroke-width="1" fill-opacity="1" fill="#cfcfcf"></path><g id="SvgjsG1177"><text id="SvgjsText1178" font-family="微软雅黑" text-anchor="middle" font-size="13px" width="69px" fill="#323232" font-weight="700" align="middle" lineHeight="125%" anchor="middle" family="微软雅黑" size="13px" weight="700" font-style="" opacity="1" y="7.375" transform="rotate(0)"><tspan id="SvgjsTspan1179" dy="16" x="44.5"><tspan id="SvgjsTspan1180" style="text-decoration:;">ToRecycle</tspan></tspan></text></g></g><g id="SvgjsG1181" transform="translate(350,303)"><path id="SvgjsPath1182" d="M 0 0L 52 0L 52 34L 0 34Z" stroke="rgba(50,50,50,1)" stroke-width="1" fill-opacity="1" fill="#ffffff"></path><g id="SvgjsG1183"><text id="SvgjsText1184" font-family="微软雅黑" text-anchor="middle" font-size="13px" width="32px" fill="#323232" font-weight="400" align="middle" lineHeight="125%" anchor="middle" family="微软雅黑" size="13px" weight="400" font-style="" opacity="1" y="7.375" transform="rotate(0)"></text></g></g><g id="SvgjsG1185" transform="translate(402,303)"><path id="SvgjsPath1186" d="M 0 0L 52 0L 52 34L 0 34Z" stroke="rgba(50,50,50,1)" stroke-width="1" fill-opacity="1" fill="#ffffff"></path><g id="SvgjsG1187"><text id="SvgjsText1188" font-family="微软雅黑" text-anchor="middle" font-size="13px" width="32px" fill="#323232" font-weight="400" align="middle" lineHeight="125%" anchor="middle" family="微软雅黑" size="13px" weight="400" font-style="" opacity="1" y="7.375" transform="rotate(0)"></text></g></g><g id="SvgjsG1189" transform="translate(454,303)"><path id="SvgjsPath1190" d="M 0 0L 52 0L 52 34L 0 34Z" stroke="rgba(50,50,50,1)" stroke-width="1" fill-opacity="1" fill="#ffffff"></path><g id="SvgjsG1191"><text id="SvgjsText1192" font-family="微软雅黑" text-anchor="middle" font-size="13px" width="32px" fill="#323232" font-weight="400" align="middle" lineHeight="125%" anchor="middle" family="微软雅黑" size="13px" weight="400" font-style="" opacity="1" y="7.375" transform="rotate(0)"></text></g></g><g id="SvgjsG1193" transform="translate(506,337)"><path id="SvgjsPath1194" d="M 0 0L 52 0L 52 34L 0 34Z" stroke="rgba(50,50,50,1)" stroke-width="1" fill-opacity="1" fill="#ffffff"></path><g id="SvgjsG1195"><text id="SvgjsText1196" font-family="微软雅黑" text-anchor="middle" font-size="13px" width="32px" fill="#323232" font-weight="400" align="middle" lineHeight="125%" anchor="middle" family="微软雅黑" size="13px" weight="400" font-style="" opacity="1" y="7.375" transform="rotate(0)"></text></g></g><g id="SvgjsG1197" transform="translate(558,337)"><path id="SvgjsPath1198" d="M 0 0L 52 0L 52 34L 0 34Z" stroke="rgba(50,50,50,1)" stroke-width="1" fill-opacity="1" fill="#ffffff"></path><g id="SvgjsG1199"><text id="SvgjsText1200" font-family="微软雅黑" text-anchor="middle" font-size="13px" width="32px" fill="#323232" font-weight="400" align="middle" lineHeight="125%" anchor="middle" family="微软雅黑" size="13px" weight="400" font-style="" opacity="1" y="7.375" transform="rotate(0)"></text></g></g><g id="SvgjsG1201" transform="translate(558,371)"><path id="SvgjsPath1202" d="M 0 0L 52 0L 52 34L 0 34Z" stroke="rgba(50,50,50,1)" stroke-width="1" fill-opacity="1" fill="#ffffff"></path><g id="SvgjsG1203"><text id="SvgjsText1204" font-family="微软雅黑" text-anchor="middle" font-size="13px" width="32px" fill="#323232" font-weight="400" align="middle" lineHeight="125%" anchor="middle" family="微软雅黑" size="13px" weight="400" font-style="" opacity="1" y="7.375" transform="rotate(0)"></text></g></g><g id="SvgjsG1205" transform="translate(898,110)"><path id="SvgjsPath1206" d="M 0 0L 620 0L 620 291L 0 291Z" stroke="rgba(50,50,50,1)" stroke-width="2" fill-opacity="1" fill="#ffe6cc"></path><g id="SvgjsG1207"><text id="SvgjsText1208" font-family="微软雅黑" text-anchor="middle" font-size="13px" width="600px" fill="#323232" font-weight="400" align="middle" lineHeight="125%" anchor="middle" family="微软雅黑" size="13px" weight="400" font-style="" opacity="1" y="135.875" transform="rotate(0)"></text></g></g><g id="SvgjsG1209" transform="translate(1141,107)"><path id="SvgjsPath1210" d="M 0 0L 152 0L 152 40L 0 40Z" stroke="none" fill="none"></path><g id="SvgjsG1211"><text id="SvgjsText1212" font-family="微软雅黑" text-anchor="middle" font-size="20px" width="152px" fill="#323232" font-weight="700" align="middle" lineHeight="125%" anchor="middle" family="微软雅黑" size="20px" weight="700" font-style="" opacity="1" y="5" transform="rotate(0)"><tspan id="SvgjsTspan1213" dy="25" x="76"><tspan id="SvgjsTspan1214" style="text-decoration:;">Disadvantages</tspan></tspan></text></g></g><g id="SvgjsG1215" transform="translate(914.5,161)"><path id="SvgjsPath1216" d="M 0 0L 587 0L 587 204L 0 204Z" stroke="none" fill="none"></path><g id="SvgjsG1217"><text id="SvgjsText1218" font-family="微软雅黑" text-anchor="start" font-size="19px" width="587px" fill="#323232" font-weight="700" align="top" lineHeight="125%" anchor="start" family="微软雅黑" size="19px" weight="700" font-style="" opacity="1" y="-2.375" transform="rotate(0)"><tspan id="SvgjsTspan1219" dy="23" x="0"><tspan id="SvgjsTspan1220" style="text-decoration:;">1. Time Efficiency: </tspan><tspan id="SvgjsTspan1221" style="text-decoration:;font-weight: normal;">If there are tons of objects in the heap and </tspan></tspan><tspan id="SvgjsTspan1222" dy="23" x="0"><tspan id="SvgjsTspan1223" style="text-decoration:;font-weight: normal;">most of them need to be recycled, then much more mark-sweep </tspan></tspan><tspan id="SvgjsTspan1224" dy="23" x="0"><tspan id="SvgjsTspan1225" style="text-decoration:;font-weight: normal;">actions need to be done. In this case, the efficiency is not okay;</tspan></tspan><tspan id="SvgjsTspan1226" dy="23" x="0"><tspan id="SvgjsTspan1227" style="text-decoration:;"> </tspan></tspan><tspan id="SvgjsTspan1228" dy="23" x="0"><tspan id="SvgjsTspan1229" style="text-decoration:;">2. Space Efficiency:</tspan><tspan id="SvgjsTspan1230" style="text-decoration:;font-weight: normal;"> It creates a lot of fragments in the memory. </tspan></tspan><tspan id="SvgjsTspan1231" dy="23" x="0"><tspan id="SvgjsTspan1232" style="text-decoration:;font-weight: normal;">In this case, if you need to put a large object in the heap(for </tspan></tspan><tspan id="SvgjsTspan1233" dy="23" x="0"><tspan id="SvgjsTspan1234" style="text-decoration:;font-weight: normal;">example, a large array), it might trigger next gc action ealier.</tspan></tspan></text></g></g></svg>