<svg id="SvgjsSvg1006" width="931" height="564" xmlns="http://www.w3.org/2000/svg" version="1.1" xmlns:xlink="http://www.w3.org/1999/xlink" xmlns:svgjs="http://svgjs.com/svgjs"><defs id="SvgjsDefs1007"><marker id="SvgjsMarker1071" markerWidth="16" markerHeight="12" refX="10" refY="6" viewBox="0 0 16 12" orient="auto" markerUnits="userSpaceOnUse" stroke-dasharray="0,0"><path id="SvgjsPath1072" d="M0,3 L10,6 L0,9 L0,3" fill="#323232" stroke="#323232" stroke-width="1"></path></marker><marker id="SvgjsMarker1075" markerWidth="16" markerHeight="12" refX="10" refY="6" viewBox="0 0 16 12" orient="auto" markerUnits="userSpaceOnUse" stroke-dasharray="0,0"><path id="SvgjsPath1076" d="M0,3 L10,6 L0,9 L0,3" fill="#323232" stroke="#323232" stroke-width="1"></path></marker><marker id="SvgjsMarker1079" markerWidth="16" markerHeight="12" refX="10" refY="6" viewBox="0 0 16 12" orient="auto" markerUnits="userSpaceOnUse" stroke-dasharray="0,0"><path id="SvgjsPath1080" d="M0,3 L10,6 L0,9 L0,3" fill="#323232" stroke="#323232" stroke-width="1"></path></marker><marker id="SvgjsMarker1083" markerWidth="16" markerHeight="12" refX="10" refY="6" viewBox="0 0 16 12" orient="auto" markerUnits="userSpaceOnUse" stroke-dasharray="0,0"><path id="SvgjsPath1084" d="M0,3 L10,6 L0,9 L0,3" fill="#323232" stroke="#323232" stroke-width="1"></path></marker><marker id="SvgjsMarker1087" markerWidth="16" markerHeight="12" refX="10" refY="6" viewBox="0 0 16 12" orient="auto" markerUnits="userSpaceOnUse" stroke-dasharray="0,0"><path id="SvgjsPath1088" d="M0,3 L10,6 L0,9 L0,3" fill="#323232" stroke="#323232" stroke-width="1"></path></marker><marker id="SvgjsMarker1091" markerWidth="16" markerHeight="12" refX="10" refY="6" viewBox="0 0 16 12" orient="auto" markerUnits="userSpaceOnUse" stroke-dasharray="0,0"><path id="SvgjsPath1092" d="M0,3 L10,6 L0,9 L0,3" fill="#323232" stroke="#323232" stroke-width="1"></path></marker><marker id="SvgjsMarker1095" markerWidth="16" markerHeight="12" refX="10" refY="6" viewBox="0 0 16 12" orient="auto" markerUnits="userSpaceOnUse" stroke-dasharray="0,0"><path id="SvgjsPath1096" d="M0,3 L10,6 L0,9 L0,3" fill="#323232" stroke="#323232" stroke-width="1"></path></marker><marker id="SvgjsMarker1099" markerWidth="16" markerHeight="12" refX="10" refY="6" viewBox="0 0 16 12" orient="auto" markerUnits="userSpaceOnUse" stroke-dasharray="0,0"><path id="SvgjsPath1100" d="M0,3 L10,6 L0,9 L0,3" fill="#323232" stroke="#323232" stroke-width="1"></path></marker><marker id="SvgjsMarker1103" markerWidth="16" markerHeight="12" refX="10" refY="6" viewBox="0 0 16 12" orient="auto" markerUnits="userSpaceOnUse" stroke-dasharray="0,0"><path id="SvgjsPath1104" d="M0,3 L10,6 L0,9 L0,3" fill="#323232" stroke="#323232" stroke-width="1"></path></marker></defs><rect id="SvgjsRect1008" width="931" height="564" fill="#ffffff"></rect><g id="SvgjsG1009" transform="translate(393,25)"><path id="SvgjsPath1010" d="M 0 35C 0 -11.666666666666666 70 -11.666666666666666 70 35C 70 81.66666666666667 0 81.66666666666667 0 35Z" stroke="rgba(50,50,50,1)" stroke-width="1" fill-opacity="1" fill="#ccffff"></path><g id="SvgjsG1011"><text id="SvgjsText1012" font-family="微软雅黑" text-anchor="middle" font-size="16px" width="50px" fill="#323232" font-weight="700" align="middle" lineHeight="125%" anchor="middle" family="微软雅黑" size="16px" weight="700" font-style="" opacity="1" y="13" transform="rotate(0)"><tspan id="SvgjsTspan1013" dy="20" x="35"><tspan id="SvgjsTspan1014" style="text-decoration:;">GC </tspan></tspan><tspan id="SvgjsTspan1015" dy="20" x="35"><tspan id="SvgjsTspan1016" style="text-decoration:;">Root</tspan></tspan></text></g></g><g id="SvgjsG1017" transform="translate(106,25)"><path id="SvgjsPath1018" d="M 0 35C 0 -11.666666666666666 70 -11.666666666666666 70 35C 70 81.66666666666667 0 81.66666666666667 0 35Z" stroke="rgba(50,50,50,1)" stroke-width="1" fill-opacity="1" fill="#ccffff"></path><g id="SvgjsG1019"><text id="SvgjsText1020" font-family="微软雅黑" text-anchor="middle" font-size="16px" width="50px" fill="#323232" font-weight="700" align="middle" lineHeight="125%" anchor="middle" family="微软雅黑" size="16px" weight="700" font-style="" opacity="1" y="13" transform="rotate(0)"><tspan id="SvgjsTspan1021" dy="20" x="35"><tspan id="SvgjsTspan1022" style="text-decoration:;">GC </tspan></tspan><tspan id="SvgjsTspan1023" dy="20" x="35"><tspan id="SvgjsTspan1024" style="text-decoration:;">Root</tspan></tspan></text></g></g><g id="SvgjsG1025" transform="translate(25,194)"><path id="SvgjsPath1026" d="M 0 35C 0 -11.666666666666666 70 -11.666666666666666 70 35C 70 81.66666666666667 0 81.66666666666667 0 35Z" stroke="rgba(50,50,50,1)" stroke-width="1" fill-opacity="1" fill="#ccffff"></path><g id="SvgjsG1027"><text id="SvgjsText1028" font-family="微软雅黑" text-anchor="middle" font-size="13px" width="50px" fill="#323232" font-weight="400" align="middle" lineHeight="125%" anchor="middle" family="微软雅黑" size="13px" weight="400" font-style="" opacity="1" y="25.375" transform="rotate(0)"></text></g></g><g id="SvgjsG1029" transform="translate(189,194)"><path id="SvgjsPath1030" d="M 0 35C 0 -11.666666666666666 70 -11.666666666666666 70 35C 70 81.66666666666667 0 81.66666666666667 0 35Z" stroke="rgba(50,50,50,1)" stroke-width="1" fill-opacity="1" fill="#ccffff"></path><g id="SvgjsG1031"><text id="SvgjsText1032" font-family="微软雅黑" text-anchor="middle" font-size="13px" width="50px" fill="#323232" font-weight="400" align="middle" lineHeight="125%" anchor="middle" family="微软雅黑" size="13px" weight="400" font-style="" opacity="1" y="25.375" transform="rotate(0)"></text></g></g><g id="SvgjsG1033" transform="translate(507,147)"><path id="SvgjsPath1034" d="M 0 35C 0 -11.666666666666666 70 -11.666666666666666 70 35C 70 81.66666666666667 0 81.66666666666667 0 35Z" stroke="rgba(50,50,50,1)" stroke-width="1" fill-opacity="1" fill="#ccffff"></path><g id="SvgjsG1035"><text id="SvgjsText1036" font-family="微软雅黑" text-anchor="middle" font-size="13px" width="50px" fill="#323232" font-weight="400" align="middle" lineHeight="125%" anchor="middle" family="微软雅黑" size="13px" weight="400" font-style="" opacity="1" y="25.375" transform="rotate(0)"></text></g></g><g id="SvgjsG1037" transform="translate(766,317)"><path id="SvgjsPath1038" d="M 0 35C 0 -11.666666666666666 70 -11.666666666666666 70 35C 70 81.66666666666667 0 81.66666666666667 0 35Z" stroke="rgba(50,50,50,1)" stroke-width="1" fill-opacity="1" fill="#cfcfcf"></path><g id="SvgjsG1039"><text id="SvgjsText1040" font-family="微软雅黑" text-anchor="middle" font-size="13px" width="50px" fill="#323232" font-weight="400" align="middle" lineHeight="125%" anchor="middle" family="微软雅黑" size="13px" weight="400" font-style="" opacity="1" y="25.375" transform="rotate(0)"></text></g></g><g id="SvgjsG1041" transform="translate(399,433)"><path id="SvgjsPath1042" d="M 0 35C 0 -11.666666666666666 70 -11.666666666666666 70 35C 70 81.66666666666667 0 81.66666666666667 0 35Z" stroke="rgba(50,50,50,1)" stroke-width="1" fill-opacity="1" fill="#ccffff"></path><g id="SvgjsG1043"><text id="SvgjsText1044" font-family="微软雅黑" text-anchor="middle" font-size="13px" width="50px" fill="#323232" font-weight="400" align="middle" lineHeight="125%" anchor="middle" family="微软雅黑" size="13px" weight="400" font-style="" opacity="1" y="25.375" transform="rotate(0)"></text></g></g><g id="SvgjsG1045" transform="translate(399,244)"><path id="SvgjsPath1046" d="M 0 35C 0 -11.666666666666666 70 -11.666666666666666 70 35C 70 81.66666666666667 0 81.66666666666667 0 35Z" stroke="rgba(50,50,50,1)" stroke-width="1" fill-opacity="1" fill="#ccffff"></path><g id="SvgjsG1047"><text id="SvgjsText1048" font-family="微软雅黑" text-anchor="middle" font-size="13px" width="50px" fill="#323232" font-weight="400" align="middle" lineHeight="125%" anchor="middle" family="微软雅黑" size="13px" weight="400" font-style="" opacity="1" y="25.375" transform="rotate(0)"></text></g></g><g id="SvgjsG1049" transform="translate(140,455)"><path id="SvgjsPath1050" d="M 0 35C 0 -11.666666666666666 70 -11.666666666666666 70 35C 70 81.66666666666667 0 81.66666666666667 0 35Z" stroke="rgba(50,50,50,1)" stroke-width="1" fill-opacity="1" fill="#ccffff"></path><g id="SvgjsG1051"><text id="SvgjsText1052" font-family="微软雅黑" text-anchor="middle" font-size="13px" width="50px" fill="#323232" font-weight="400" align="middle" lineHeight="125%" anchor="middle" family="微软雅黑" size="13px" weight="400" font-style="" opacity="1" y="25.375" transform="rotate(0)"></text></g></g><g id="SvgjsG1053" transform="translate(25,338)"><path id="SvgjsPath1054" d="M 0 35C 0 -11.666666666666666 70 -11.666666666666666 70 35C 70 81.66666666666667 0 81.66666666666667 0 35Z" stroke="rgba(50,50,50,1)" stroke-width="1" fill-opacity="1" fill="#ccffff"></path><g id="SvgjsG1055"><text id="SvgjsText1056" font-family="微软雅黑" text-anchor="middle" font-size="13px" width="50px" fill="#323232" font-weight="400" align="middle" lineHeight="125%" anchor="middle" family="微软雅黑" size="13px" weight="400" font-style="" opacity="1" y="25.375" transform="rotate(0)"></text></g></g><g id="SvgjsG1057" transform="translate(752,51)"><path id="SvgjsPath1058" d="M 0 35C 0 -11.666666666666666 70 -11.666666666666666 70 35C 70 81.66666666666667 0 81.66666666666667 0 35Z" stroke="rgba(50,50,50,1)" stroke-width="1" fill-opacity="1" fill="#cfcfcf"></path><g id="SvgjsG1059"><text id="SvgjsText1060" font-family="微软雅黑" text-anchor="middle" font-size="13px" width="50px" fill="#323232" font-weight="400" align="middle" lineHeight="125%" anchor="middle" family="微软雅黑" size="13px" weight="400" font-style="" opacity="1" y="25.375" transform="rotate(0)"></text></g></g><g id="SvgjsG1061" transform="translate(674,154)"><path id="SvgjsPath1062" d="M 0 35C 0 -11.666666666666666 70 -11.666666666666666 70 35C 70 81.66666666666667 0 81.66666666666667 0 35Z" stroke="rgba(50,50,50,1)" stroke-width="1" fill-opacity="1" fill="#cfcfcf"></path><g id="SvgjsG1063"><text id="SvgjsText1064" font-family="微软雅黑" text-anchor="middle" font-size="13px" width="50px" fill="#323232" font-weight="400" align="middle" lineHeight="125%" anchor="middle" family="微软雅黑" size="13px" weight="400" font-style="" opacity="1" y="25.375" transform="rotate(0)"></text></g></g><g id="SvgjsG1065" transform="translate(836,154)"><path id="SvgjsPath1066" d="M 0 35C 0 -11.666666666666666 70 -11.666666666666666 70 35C 70 81.66666666666667 0 81.66666666666667 0 35Z" stroke="rgba(50,50,50,1)" stroke-width="1" fill-opacity="1" fill="#cfcfcf"></path><g id="SvgjsG1067"><text id="SvgjsText1068" font-family="微软雅黑" text-anchor="middle" font-size="13px" width="50px" fill="#323232" font-weight="400" align="middle" lineHeight="125%" anchor="middle" family="微软雅黑" size="13px" weight="400" font-style="" opacity="1" y="25.375" transform="rotate(0)"></text></g></g><g id="SvgjsG1069"><path id="SvgjsPath1070" d="M141 95L60 194" stroke="#323232" stroke-width="1" fill="none" marker-end="url(#SvgjsMarker1071)"></path></g><g id="SvgjsG1073"><path id="SvgjsPath1074" d="M141 95L224 194" stroke="#323232" stroke-width="1" fill="none" marker-end="url(#SvgjsMarker1075)"></path></g><g id="SvgjsG1077"><path id="SvgjsPath1078" d="M60 264L60 338" stroke="#323232" stroke-width="1" fill="none" marker-end="url(#SvgjsMarker1079)"></path></g><g id="SvgjsG1081"><path id="SvgjsPath1082" d="M60 408L140 490" stroke="#323232" stroke-width="1" fill="none" marker-end="url(#SvgjsMarker1083)"></path></g><g id="SvgjsG1085"><path id="SvgjsPath1086" d="M428 95L507 182" stroke="#323232" stroke-width="1" fill="none" marker-end="url(#SvgjsMarker1087)"></path></g><g id="SvgjsG1089"><path id="SvgjsPath1090" d="M507 182L434 244" stroke="#323232" stroke-width="1" fill="none" marker-end="url(#SvgjsMarker1091)"></path></g><g id="SvgjsG1093"><path id="SvgjsPath1094" d="M434 314L434 433" stroke="#323232" stroke-width="1" fill="none" marker-end="url(#SvgjsMarker1095)"></path></g><g id="SvgjsG1097"><path id="SvgjsPath1098" d="M787 121L709 154" stroke="#323232" stroke-width="1" fill="none" marker-end="url(#SvgjsMarker1099)"></path></g><g id="SvgjsG1101"><path id="SvgjsPath1102" d="M787 121L871 154" stroke="#323232" stroke-width="1" fill="none" marker-end="url(#SvgjsMarker1103)"></path></g><g id="SvgjsG1105" transform="translate(586,451)"><path id="SvgjsPath1106" d="M 0 13.5C 0 -4.5 27 -4.5 27 13.5C 27 31.5 0 31.5 0 13.5Z" stroke="rgba(50,50,50,1)" stroke-width="1" fill-opacity="1" fill="#ccffff"></path><g id="SvgjsG1107"><text id="SvgjsText1108" font-family="微软雅黑" text-anchor="middle" font-size="13px" width="7px" fill="#323232" font-weight="400" align="middle" lineHeight="125%" anchor="middle" family="微软雅黑" size="13px" weight="400" font-style="" opacity="1" y="3.875" transform="rotate(0)"></text></g></g><g id="SvgjsG1109" transform="translate(586.5,510)"><path id="SvgjsPath1110" d="M 0 12.5C 0 -4.166666666666667 26 -4.166666666666667 26 12.5C 26 29.166666666666668 0 29.166666666666668 0 12.5Z" stroke="rgba(50,50,50,1)" stroke-width="1" fill-opacity="1" fill="#cfcfcf"></path><g id="SvgjsG1111"><text id="SvgjsText1112" font-family="微软雅黑" text-anchor="middle" font-size="13px" width="6px" fill="#323232" font-weight="400" align="middle" lineHeight="125%" anchor="middle" family="微软雅黑" size="13px" weight="400" font-style="" opacity="1" y="2.875" transform="rotate(0)"></text></g></g><g id="SvgjsG1113" transform="translate(582,448)"><path id="SvgjsPath1114" d="M 0 0L 180 0L 180 33L 0 33Z" stroke="none" fill="none"></path><g id="SvgjsG1115"><text id="SvgjsText1116" font-family="微软雅黑" text-anchor="middle" font-size="13px" width="180px" fill="#323232" font-weight="700" align="middle" lineHeight="125%" anchor="middle" family="微软雅黑" size="13px" weight="700" font-style="" opacity="1" y="6.875" transform="rotate(0)"><tspan id="SvgjsTspan1117" dy="16" x="90"><tspan id="SvgjsTspan1118" style="text-decoration:;">SURVIVOR</tspan></tspan></text></g></g><g id="SvgjsG1119" transform="translate(582,506)"><path id="SvgjsPath1120" d="M 0 0L 180 0L 180 33L 0 33Z" stroke="none" fill="none"></path><g id="SvgjsG1121"><text id="SvgjsText1122" font-family="微软雅黑" text-anchor="middle" font-size="13px" width="180px" fill="#323232" font-weight="700" align="middle" lineHeight="125%" anchor="middle" family="微软雅黑" size="13px" weight="700" font-style="" opacity="1" y="6.875" transform="rotate(0)"><tspan id="SvgjsTspan1123" dy="16" x="90"><tspan id="SvgjsTspan1124" style="text-decoration:;">TO RECYCLE</tspan></tspan></text></g></g></svg>