<svg id="SvgjsSvg1006" width="1658" height="658" xmlns="http://www.w3.org/2000/svg" version="1.1" xmlns:xlink="http://www.w3.org/1999/xlink" xmlns:svgjs="http://svgjs.com/svgjs"><defs id="SvgjsDefs1007"><marker id="SvgjsMarker1264" markerWidth="16" markerHeight="12" refX="10" refY="6" viewBox="0 0 16 12" orient="auto" markerUnits="userSpaceOnUse" stroke-dasharray="0,0"><path id="SvgjsPath1265" d="M0,3 L10,6 L0,9 L0,3" fill="#323232" stroke="#323232" stroke-width="1"></path></marker><marker id="SvgjsMarker1280" markerWidth="16" markerHeight="12" refX="16" refY="6" viewBox="0 0 16 12" orient="auto" markerUnits="userSpaceOnUse" stroke-dasharray="0,0"><path id="SvgjsPath1281" d="M0,2 L14,6 L0,11 L0,2" fill="#323232" stroke="#323232" stroke-width="2"></path></marker><marker id="SvgjsMarker1284" markerWidth="16" markerHeight="12" refX="16" refY="6" viewBox="0 0 16 12" orient="auto" markerUnits="userSpaceOnUse" stroke-dasharray="0,0"><path id="SvgjsPath1285" d="M0,2 L14,6 L0,11 L0,2" fill="#323232" stroke="#323232" stroke-width="2"></path></marker></defs><rect id="SvgjsRect1008" width="1658" height="658" fill="#ffffff"></rect><g id="SvgjsG1009" transform="translate(578,25)"><path id="SvgjsPath1010" d="M 0 0L 349 0L 349 39L 0 39Z" stroke="none" fill="none"></path><g id="SvgjsG1011"><text id="SvgjsText1012" font-family="微软雅黑" text-anchor="middle" font-size="25px" width="349px" fill="#323232" font-weight="700" align="middle" lineHeight="125%" anchor="middle" family="微软雅黑" size="25px" weight="700" font-style="" opacity="1" y="-1.125" transform="rotate(0)"><tspan id="SvgjsTspan1013" dy="31" x="174.5"><tspan id="SvgjsTspan1014" style="text-decoration:;">Mark-Compact</tspan></tspan></text></g></g><g id="SvgjsG1015" transform="translate(563,119)"><path id="SvgjsPath1016" d="M 0 0L 68 0L 68 44L 0 44Z" stroke="rgba(50,50,50,1)" stroke-width="1" fill-opacity="1" fill="#ffffcc"></path><g id="SvgjsG1017"><text id="SvgjsText1018" font-family="微软雅黑" text-anchor="middle" font-size="13px" width="48px" fill="#323232" font-weight="400" align="middle" lineHeight="125%" anchor="middle" family="微软雅黑" size="13px" weight="400" font-style="" opacity="1" y="12.375" transform="rotate(0)"></text></g></g><g id="SvgjsG1019" transform="translate(631,119)"><path id="SvgjsPath1020" d="M 0 0L 68 0L 68 44L 0 44Z" stroke="rgba(50,50,50,1)" stroke-width="1" fill-opacity="1" fill="#ffffcc"></path><g id="SvgjsG1021"><text id="SvgjsText1022" font-family="微软雅黑" text-anchor="middle" font-size="13px" width="48px" fill="#323232" font-weight="400" align="middle" lineHeight="125%" anchor="middle" family="微软雅黑" size="13px" weight="400" font-style="" opacity="1" y="12.375" transform="rotate(0)"></text></g></g><g id="SvgjsG1023" transform="translate(699,119)"><path id="SvgjsPath1024" d="M 0 0L 68 0L 68 44L 0 44Z" stroke="rgba(50,50,50,1)" stroke-width="1" fill-opacity="1" fill="#cfcfcf"></path><g id="SvgjsG1025"><text id="SvgjsText1026" font-family="微软雅黑" text-anchor="middle" font-size="13px" width="48px" fill="#323232" font-weight="400" align="middle" lineHeight="125%" anchor="middle" family="微软雅黑" size="13px" weight="400" font-style="" opacity="1" y="12.375" transform="rotate(0)"></text></g></g><g id="SvgjsG1027" transform="translate(767,119)"><path id="SvgjsPath1028" d="M 0 0L 68 0L 68 44L 0 44Z" stroke="rgba(50,50,50,1)" stroke-width="1" fill-opacity="1" fill="#cfcfcf"></path><g id="SvgjsG1029"><text id="SvgjsText1030" font-family="微软雅黑" text-anchor="middle" font-size="13px" width="48px" fill="#323232" font-weight="400" align="middle" lineHeight="125%" anchor="middle" family="微软雅黑" size="13px" weight="400" font-style="" opacity="1" y="12.375" transform="rotate(0)"></text></g></g><g id="SvgjsG1031" transform="translate(835,119)"><path id="SvgjsPath1032" d="M 0 0L 68 0L 68 44L 0 44Z" stroke="rgba(50,50,50,1)" stroke-width="1" fill-opacity="1" fill="#cfcfcf"></path><g id="SvgjsG1033"><text id="SvgjsText1034" font-family="微软雅黑" text-anchor="middle" font-size="13px" width="48px" fill="#323232" font-weight="400" align="middle" lineHeight="125%" anchor="middle" family="微软雅黑" size="13px" weight="400" font-style="" opacity="1" y="12.375" transform="rotate(0)"></text></g></g><g id="SvgjsG1035" transform="translate(903,119)"><path id="SvgjsPath1036" d="M 0 0L 68 0L 68 44L 0 44Z" stroke="rgba(50,50,50,1)" stroke-width="1" fill-opacity="1" fill="#cfcfcf"></path><g id="SvgjsG1037"><text id="SvgjsText1038" font-family="微软雅黑" text-anchor="middle" font-size="13px" width="48px" fill="#323232" font-weight="400" align="middle" lineHeight="125%" anchor="middle" family="微软雅黑" size="13px" weight="400" font-style="" opacity="1" y="12.375" transform="rotate(0)"></text></g></g><g id="SvgjsG1039" transform="translate(563,163)"><path id="SvgjsPath1040" d="M 0 0L 68 0L 68 44L 0 44Z" stroke="rgba(50,50,50,1)" stroke-width="1" fill-opacity="1" fill="#ffffff"></path><g id="SvgjsG1041"><text id="SvgjsText1042" font-family="微软雅黑" text-anchor="middle" font-size="13px" width="48px" fill="#323232" font-weight="400" align="middle" lineHeight="125%" anchor="middle" family="微软雅黑" size="13px" weight="400" font-style="" opacity="1" y="12.375" transform="rotate(0)"></text></g></g><g id="SvgjsG1043" transform="translate(631,163)"><path id="SvgjsPath1044" d="M 0 0L 68 0L 68 44L 0 44Z" stroke="rgba(50,50,50,1)" stroke-width="1" fill-opacity="1" fill="#ffffff"></path><g id="SvgjsG1045"><text id="SvgjsText1046" font-family="微软雅黑" text-anchor="middle" font-size="13px" width="48px" fill="#323232" font-weight="400" align="middle" lineHeight="125%" anchor="middle" family="微软雅黑" size="13px" weight="400" font-style="" opacity="1" y="12.375" transform="rotate(0)"></text></g></g><g id="SvgjsG1047" transform="translate(699,163)"><path id="SvgjsPath1048" d="M 0 0L 68 0L 68 44L 0 44Z" stroke="rgba(50,50,50,1)" stroke-width="1" fill-opacity="1" fill="#ffffcc"></path><g id="SvgjsG1049"><text id="SvgjsText1050" font-family="微软雅黑" text-anchor="middle" font-size="13px" width="48px" fill="#323232" font-weight="400" align="middle" lineHeight="125%" anchor="middle" family="微软雅黑" size="13px" weight="400" font-style="" opacity="1" y="12.375" transform="rotate(0)"></text></g></g><g id="SvgjsG1051" transform="translate(767,163)"><path id="SvgjsPath1052" d="M 0 0L 68 0L 68 44L 0 44Z" stroke="rgba(50,50,50,1)" stroke-width="1" fill-opacity="1" fill="#ffffcc"></path><g id="SvgjsG1053"><text id="SvgjsText1054" font-family="微软雅黑" text-anchor="middle" font-size="13px" width="48px" fill="#323232" font-weight="400" align="middle" lineHeight="125%" anchor="middle" family="微软雅黑" size="13px" weight="400" font-style="" opacity="1" y="12.375" transform="rotate(0)"></text></g></g><g id="SvgjsG1055" transform="translate(835,163)"><path id="SvgjsPath1056" d="M 0 0L 68 0L 68 44L 0 44Z" stroke="rgba(50,50,50,1)" stroke-width="1" fill-opacity="1" fill="#ffffff"></path><g id="SvgjsG1057"><text id="SvgjsText1058" font-family="微软雅黑" text-anchor="middle" font-size="13px" width="48px" fill="#323232" font-weight="400" align="middle" lineHeight="125%" anchor="middle" family="微软雅黑" size="13px" weight="400" font-style="" opacity="1" y="12.375" transform="rotate(0)"></text></g></g><g id="SvgjsG1059" transform="translate(903,163)"><path id="SvgjsPath1060" d="M 0 0L 68 0L 68 44L 0 44Z" stroke="rgba(50,50,50,1)" stroke-width="1" fill-opacity="1" fill="#ffffcc"></path><g id="SvgjsG1061"><text id="SvgjsText1062" font-family="微软雅黑" text-anchor="middle" font-size="13px" width="48px" fill="#323232" font-weight="400" align="middle" lineHeight="125%" anchor="middle" family="微软雅黑" size="13px" weight="400" font-style="" opacity="1" y="12.375" transform="rotate(0)"></text></g></g><g id="SvgjsG1063" transform="translate(563,207)"><path id="SvgjsPath1064" d="M 0 0L 68 0L 68 44L 0 44Z" stroke="rgba(50,50,50,1)" stroke-width="1" fill-opacity="1" fill="#cfcfcf"></path><g id="SvgjsG1065"><text id="SvgjsText1066" font-family="微软雅黑" text-anchor="middle" font-size="13px" width="48px" fill="#323232" font-weight="400" align="middle" lineHeight="125%" anchor="middle" family="微软雅黑" size="13px" weight="400" font-style="" opacity="1" y="12.375" transform="rotate(0)"></text></g></g><g id="SvgjsG1067" transform="translate(631,207)"><path id="SvgjsPath1068" d="M 0 0L 68 0L 68 44L 0 44Z" stroke="rgba(50,50,50,1)" stroke-width="1" fill-opacity="1" fill="#cfcfcf"></path><g id="SvgjsG1069"><text id="SvgjsText1070" font-family="微软雅黑" text-anchor="middle" font-size="13px" width="48px" fill="#323232" font-weight="400" align="middle" lineHeight="125%" anchor="middle" family="微软雅黑" size="13px" weight="400" font-style="" opacity="1" y="12.375" transform="rotate(0)"></text></g></g><g id="SvgjsG1071" transform="translate(699,207)"><path id="SvgjsPath1072" d="M 0 0L 68 0L 68 44L 0 44Z" stroke="rgba(50,50,50,1)" stroke-width="1" fill-opacity="1" fill="#ffffcc"></path><g id="SvgjsG1073"><text id="SvgjsText1074" font-family="微软雅黑" text-anchor="middle" font-size="13px" width="48px" fill="#323232" font-weight="400" align="middle" lineHeight="125%" anchor="middle" family="微软雅黑" size="13px" weight="400" font-style="" opacity="1" y="12.375" transform="rotate(0)"></text></g></g><g id="SvgjsG1075" transform="translate(767,207)"><path id="SvgjsPath1076" d="M 0 0L 68 0L 68 44L 0 44Z" stroke="rgba(50,50,50,1)" stroke-width="1" fill-opacity="1" fill="#ffffcc"></path><g id="SvgjsG1077"><text id="SvgjsText1078" font-family="微软雅黑" text-anchor="middle" font-size="13px" width="48px" fill="#323232" font-weight="400" align="middle" lineHeight="125%" anchor="middle" family="微软雅黑" size="13px" weight="400" font-style="" opacity="1" y="12.375" transform="rotate(0)"></text></g></g><g id="SvgjsG1079" transform="translate(835,207)"><path id="SvgjsPath1080" d="M 0 0L 68 0L 68 44L 0 44Z" stroke="rgba(50,50,50,1)" stroke-width="1" fill-opacity="1" fill="#ffffcc"></path><g id="SvgjsG1081"><text id="SvgjsText1082" font-family="微软雅黑" text-anchor="middle" font-size="13px" width="48px" fill="#323232" font-weight="400" align="middle" lineHeight="125%" anchor="middle" family="微软雅黑" size="13px" weight="400" font-style="" opacity="1" y="12.375" transform="rotate(0)"></text></g></g><g id="SvgjsG1083" transform="translate(903,207)"><path id="SvgjsPath1084" d="M 0 0L 68 0L 68 44L 0 44Z" stroke="rgba(50,50,50,1)" stroke-width="1" fill-opacity="1" fill="#ffffff"></path><g id="SvgjsG1085"><text id="SvgjsText1086" font-family="微软雅黑" text-anchor="middle" font-size="13px" width="48px" fill="#323232" font-weight="400" align="middle" lineHeight="125%" anchor="middle" family="微软雅黑" size="13px" weight="400" font-style="" opacity="1" y="12.375" transform="rotate(0)"></text></g></g><g id="SvgjsG1087" transform="translate(563,251)"><path id="SvgjsPath1088" d="M 0 0L 68 0L 68 44L 0 44Z" stroke="rgba(50,50,50,1)" stroke-width="1" fill-opacity="1" fill="#cfcfcf"></path><g id="SvgjsG1089"><text id="SvgjsText1090" font-family="微软雅黑" text-anchor="middle" font-size="13px" width="48px" fill="#323232" font-weight="400" align="middle" lineHeight="125%" anchor="middle" family="微软雅黑" size="13px" weight="400" font-style="" opacity="1" y="12.375" transform="rotate(0)"></text></g></g><g id="SvgjsG1091" transform="translate(631,251)"><path id="SvgjsPath1092" d="M 0 0L 68 0L 68 44L 0 44Z" stroke="rgba(50,50,50,1)" stroke-width="1" fill-opacity="1" fill="#cfcfcf"></path><g id="SvgjsG1093"><text id="SvgjsText1094" font-family="微软雅黑" text-anchor="middle" font-size="13px" width="48px" fill="#323232" font-weight="400" align="middle" lineHeight="125%" anchor="middle" family="微软雅黑" size="13px" weight="400" font-style="" opacity="1" y="12.375" transform="rotate(0)"></text></g></g><g id="SvgjsG1095" transform="translate(699,251)"><path id="SvgjsPath1096" d="M 0 0L 68 0L 68 44L 0 44Z" stroke="rgba(50,50,50,1)" stroke-width="1" fill-opacity="1" fill="#ffffcc"></path><g id="SvgjsG1097"><text id="SvgjsText1098" font-family="微软雅黑" text-anchor="middle" font-size="13px" width="48px" fill="#323232" font-weight="400" align="middle" lineHeight="125%" anchor="middle" family="微软雅黑" size="13px" weight="400" font-style="" opacity="1" y="12.375" transform="rotate(0)"></text></g></g><g id="SvgjsG1099" transform="translate(767,251)"><path id="SvgjsPath1100" d="M 0 0L 68 0L 68 44L 0 44Z" stroke="rgba(50,50,50,1)" stroke-width="1" fill-opacity="1" fill="#cfcfcf"></path><g id="SvgjsG1101"><text id="SvgjsText1102" font-family="微软雅黑" text-anchor="middle" font-size="13px" width="48px" fill="#323232" font-weight="400" align="middle" lineHeight="125%" anchor="middle" family="微软雅黑" size="13px" weight="400" font-style="" opacity="1" y="12.375" transform="rotate(0)"></text></g></g><g id="SvgjsG1103" transform="translate(835,251)"><path id="SvgjsPath1104" d="M 0 0L 68 0L 68 44L 0 44Z" stroke="rgba(50,50,50,1)" stroke-width="1" fill-opacity="1" fill="#cfcfcf"></path><g id="SvgjsG1105"><text id="SvgjsText1106" font-family="微软雅黑" text-anchor="middle" font-size="13px" width="48px" fill="#323232" font-weight="400" align="middle" lineHeight="125%" anchor="middle" family="微软雅黑" size="13px" weight="400" font-style="" opacity="1" y="12.375" transform="rotate(0)"></text></g></g><g id="SvgjsG1107" transform="translate(903,251)"><path id="SvgjsPath1108" d="M 0 0L 68 0L 68 44L 0 44Z" stroke="rgba(50,50,50,1)" stroke-width="1" fill-opacity="1" fill="#cfcfcf"></path><g id="SvgjsG1109"><text id="SvgjsText1110" font-family="微软雅黑" text-anchor="middle" font-size="13px" width="48px" fill="#323232" font-weight="400" align="middle" lineHeight="125%" anchor="middle" family="微软雅黑" size="13px" weight="400" font-style="" opacity="1" y="12.375" transform="rotate(0)"></text></g></g><g id="SvgjsG1111" transform="translate(563,374)"><path id="SvgjsPath1112" d="M 0 0L 68 0L 68 44L 0 44Z" stroke="rgba(50,50,50,1)" stroke-width="1" fill-opacity="1" fill="#ffffcc"></path><g id="SvgjsG1113"><text id="SvgjsText1114" font-family="微软雅黑" text-anchor="middle" font-size="13px" width="48px" fill="#323232" font-weight="400" align="middle" lineHeight="125%" anchor="middle" family="微软雅黑" size="13px" weight="400" font-style="" opacity="1" y="12.375" transform="rotate(0)"></text></g></g><g id="SvgjsG1115" transform="translate(631,374)"><path id="SvgjsPath1116" d="M 0 0L 68 0L 68 44L 0 44Z" stroke="rgba(50,50,50,1)" stroke-width="1" fill-opacity="1" fill="#ffffcc"></path><g id="SvgjsG1117"><text id="SvgjsText1118" font-family="微软雅黑" text-anchor="middle" font-size="13px" width="48px" fill="#323232" font-weight="400" align="middle" lineHeight="125%" anchor="middle" family="微软雅黑" size="13px" weight="400" font-style="" opacity="1" y="12.375" transform="rotate(0)"></text></g></g><g id="SvgjsG1119" transform="translate(699,374)"><path id="SvgjsPath1120" d="M 0 0L 68 0L 68 44L 0 44Z" stroke="rgba(50,50,50,1)" stroke-width="1" fill-opacity="1" fill="#ffffcc"></path><g id="SvgjsG1121"><text id="SvgjsText1122" font-family="微软雅黑" text-anchor="middle" font-size="13px" width="48px" fill="#323232" font-weight="400" align="middle" lineHeight="125%" anchor="middle" family="微软雅黑" size="13px" weight="400" font-style="" opacity="1" y="12.375" transform="rotate(0)"></text></g></g><g id="SvgjsG1123" transform="translate(767,374)"><path id="SvgjsPath1124" d="M 0 0L 68 0L 68 44L 0 44Z" stroke="rgba(50,50,50,1)" stroke-width="1" fill-opacity="1" fill="#ffffcc"></path><g id="SvgjsG1125"><text id="SvgjsText1126" font-family="微软雅黑" text-anchor="middle" font-size="13px" width="48px" fill="#323232" font-weight="400" align="middle" lineHeight="125%" anchor="middle" family="微软雅黑" size="13px" weight="400" font-style="" opacity="1" y="12.375" transform="rotate(0)"></text></g></g><g id="SvgjsG1127" transform="translate(835,374)"><path id="SvgjsPath1128" d="M 0 0L 68 0L 68 44L 0 44Z" stroke="rgba(50,50,50,1)" stroke-width="1" fill-opacity="1" fill="#ffffcc"></path><g id="SvgjsG1129"><text id="SvgjsText1130" font-family="微软雅黑" text-anchor="middle" font-size="13px" width="48px" fill="#323232" font-weight="400" align="middle" lineHeight="125%" anchor="middle" family="微软雅黑" size="13px" weight="400" font-style="" opacity="1" y="12.375" transform="rotate(0)"></text></g></g><g id="SvgjsG1131" transform="translate(903,374)"><path id="SvgjsPath1132" d="M 0 0L 68 0L 68 44L 0 44Z" stroke="rgba(50,50,50,1)" stroke-width="1" fill-opacity="1" fill="#ffffcc"></path><g id="SvgjsG1133"><text id="SvgjsText1134" font-family="微软雅黑" text-anchor="middle" font-size="13px" width="48px" fill="#323232" font-weight="400" align="middle" lineHeight="125%" anchor="middle" family="微软雅黑" size="13px" weight="400" font-style="" opacity="1" y="12.375" transform="rotate(0)"></text></g></g><g id="SvgjsG1135" transform="translate(563,418)"><path id="SvgjsPath1136" d="M 0 0L 68 0L 68 44L 0 44Z" stroke="rgba(50,50,50,1)" stroke-width="1" fill-opacity="1" fill="#ffffcc"></path><g id="SvgjsG1137"><text id="SvgjsText1138" font-family="微软雅黑" text-anchor="middle" font-size="13px" width="48px" fill="#323232" font-weight="400" align="middle" lineHeight="125%" anchor="middle" family="微软雅黑" size="13px" weight="400" font-style="" opacity="1" y="12.375" transform="rotate(0)"></text></g></g><g id="SvgjsG1139" transform="translate(631,418)"><path id="SvgjsPath1140" d="M 0 0L 68 0L 68 44L 0 44Z" stroke="rgba(50,50,50,1)" stroke-width="1" fill-opacity="1" fill="#ffffcc"></path><g id="SvgjsG1141"><text id="SvgjsText1142" font-family="微软雅黑" text-anchor="middle" font-size="13px" width="48px" fill="#323232" font-weight="400" align="middle" lineHeight="125%" anchor="middle" family="微软雅黑" size="13px" weight="400" font-style="" opacity="1" y="12.375" transform="rotate(0)"></text></g></g><g id="SvgjsG1143" transform="translate(699,418)"><path id="SvgjsPath1144" d="M 0 0L 68 0L 68 44L 0 44Z" stroke="rgba(50,50,50,1)" stroke-width="1" fill-opacity="1" fill="#ffffcc"></path><g id="SvgjsG1145"><text id="SvgjsText1146" font-family="微软雅黑" text-anchor="middle" font-size="13px" width="48px" fill="#323232" font-weight="400" align="middle" lineHeight="125%" anchor="middle" family="微软雅黑" size="13px" weight="400" font-style="" opacity="1" y="12.375" transform="rotate(0)"></text></g></g><g id="SvgjsG1147" transform="translate(767,418)"><path id="SvgjsPath1148" d="M 0 0L 68 0L 68 44L 0 44Z" stroke="rgba(50,50,50,1)" stroke-width="1" fill-opacity="1" fill="#ffffff"></path><g id="SvgjsG1149"><text id="SvgjsText1150" font-family="微软雅黑" text-anchor="middle" font-size="13px" width="48px" fill="#323232" font-weight="400" align="middle" lineHeight="125%" anchor="middle" family="微软雅黑" size="13px" weight="400" font-style="" opacity="1" y="12.375" transform="rotate(0)"></text></g></g><g id="SvgjsG1151" transform="translate(835,418)"><path id="SvgjsPath1152" d="M 0 0L 68 0L 68 44L 0 44Z" stroke="rgba(50,50,50,1)" stroke-width="1" fill-opacity="1" fill="#ffffff"></path><g id="SvgjsG1153"><text id="SvgjsText1154" font-family="微软雅黑" text-anchor="middle" font-size="13px" width="48px" fill="#323232" font-weight="400" align="middle" lineHeight="125%" anchor="middle" family="微软雅黑" size="13px" weight="400" font-style="" opacity="1" y="12.375" transform="rotate(0)"></text></g></g><g id="SvgjsG1155" transform="translate(903,418)"><path id="SvgjsPath1156" d="M 0 0L 68 0L 68 44L 0 44Z" stroke="rgba(50,50,50,1)" stroke-width="1" fill-opacity="1" fill="#ffffff"></path><g id="SvgjsG1157"><text id="SvgjsText1158" font-family="微软雅黑" text-anchor="middle" font-size="13px" width="48px" fill="#323232" font-weight="400" align="middle" lineHeight="125%" anchor="middle" family="微软雅黑" size="13px" weight="400" font-style="" opacity="1" y="12.375" transform="rotate(0)"></text></g></g><g id="SvgjsG1159" transform="translate(563,462)"><path id="SvgjsPath1160" d="M 0 0L 68 0L 68 44L 0 44Z" stroke="rgba(50,50,50,1)" stroke-width="1" fill-opacity="1" fill="#ffffff"></path><g id="SvgjsG1161"><text id="SvgjsText1162" font-family="微软雅黑" text-anchor="middle" font-size="13px" width="48px" fill="#323232" font-weight="400" align="middle" lineHeight="125%" anchor="middle" family="微软雅黑" size="13px" weight="400" font-style="" opacity="1" y="12.375" transform="rotate(0)"></text></g></g><g id="SvgjsG1163" transform="translate(631,462)"><path id="SvgjsPath1164" d="M 0 0L 68 0L 68 44L 0 44Z" stroke="rgba(50,50,50,1)" stroke-width="1" fill-opacity="1" fill="#ffffff"></path><g id="SvgjsG1165"><text id="SvgjsText1166" font-family="微软雅黑" text-anchor="middle" font-size="13px" width="48px" fill="#323232" font-weight="400" align="middle" lineHeight="125%" anchor="middle" family="微软雅黑" size="13px" weight="400" font-style="" opacity="1" y="12.375" transform="rotate(0)"></text></g></g><g id="SvgjsG1167" transform="translate(699,462)"><path id="SvgjsPath1168" d="M 0 0L 68 0L 68 44L 0 44Z" stroke="rgba(50,50,50,1)" stroke-width="1" fill-opacity="1" fill="#ffffff"></path><g id="SvgjsG1169"><text id="SvgjsText1170" font-family="微软雅黑" text-anchor="middle" font-size="13px" width="48px" fill="#323232" font-weight="400" align="middle" lineHeight="125%" anchor="middle" family="微软雅黑" size="13px" weight="400" font-style="" opacity="1" y="12.375" transform="rotate(0)"></text></g></g><g id="SvgjsG1171" transform="translate(767,462)"><path id="SvgjsPath1172" d="M 0 0L 68 0L 68 44L 0 44Z" stroke="rgba(50,50,50,1)" stroke-width="1" fill-opacity="1" fill="#ffffff"></path><g id="SvgjsG1173"><text id="SvgjsText1174" font-family="微软雅黑" text-anchor="middle" font-size="13px" width="48px" fill="#323232" font-weight="400" align="middle" lineHeight="125%" anchor="middle" family="微软雅黑" size="13px" weight="400" font-style="" opacity="1" y="12.375" transform="rotate(0)"></text></g></g><g id="SvgjsG1175" transform="translate(835,462)"><path id="SvgjsPath1176" d="M 0 0L 68 0L 68 44L 0 44Z" stroke="rgba(50,50,50,1)" stroke-width="1" fill-opacity="1" fill="#ffffff"></path><g id="SvgjsG1177"><text id="SvgjsText1178" font-family="微软雅黑" text-anchor="middle" font-size="13px" width="48px" fill="#323232" font-weight="400" align="middle" lineHeight="125%" anchor="middle" family="微软雅黑" size="13px" weight="400" font-style="" opacity="1" y="12.375" transform="rotate(0)"></text></g></g><g id="SvgjsG1179" transform="translate(903,462)"><path id="SvgjsPath1180" d="M 0 0L 68 0L 68 44L 0 44Z" stroke="rgba(50,50,50,1)" stroke-width="1" fill-opacity="1" fill="#ffffff"></path><g id="SvgjsG1181"><text id="SvgjsText1182" font-family="微软雅黑" text-anchor="middle" font-size="13px" width="48px" fill="#323232" font-weight="400" align="middle" lineHeight="125%" anchor="middle" family="微软雅黑" size="13px" weight="400" font-style="" opacity="1" y="12.375" transform="rotate(0)"></text></g></g><g id="SvgjsG1183" transform="translate(563,506)"><path id="SvgjsPath1184" d="M 0 0L 68 0L 68 44L 0 44Z" stroke="rgba(50,50,50,1)" stroke-width="1" fill-opacity="1" fill="#ffffff"></path><g id="SvgjsG1185"><text id="SvgjsText1186" font-family="微软雅黑" text-anchor="middle" font-size="13px" width="48px" fill="#323232" font-weight="400" align="middle" lineHeight="125%" anchor="middle" family="微软雅黑" size="13px" weight="400" font-style="" opacity="1" y="12.375" transform="rotate(0)"></text></g></g><g id="SvgjsG1187" transform="translate(631,506)"><path id="SvgjsPath1188" d="M 0 0L 68 0L 68 44L 0 44Z" stroke="rgba(50,50,50,1)" stroke-width="1" fill-opacity="1" fill="#ffffff"></path><g id="SvgjsG1189"><text id="SvgjsText1190" font-family="微软雅黑" text-anchor="middle" font-size="13px" width="48px" fill="#323232" font-weight="400" align="middle" lineHeight="125%" anchor="middle" family="微软雅黑" size="13px" weight="400" font-style="" opacity="1" y="12.375" transform="rotate(0)"></text></g></g><g id="SvgjsG1191" transform="translate(699,506)"><path id="SvgjsPath1192" d="M 0 0L 68 0L 68 44L 0 44Z" stroke="rgba(50,50,50,1)" stroke-width="1" fill-opacity="1" fill="#ffffff"></path><g id="SvgjsG1193"><text id="SvgjsText1194" font-family="微软雅黑" text-anchor="middle" font-size="13px" width="48px" fill="#323232" font-weight="400" align="middle" lineHeight="125%" anchor="middle" family="微软雅黑" size="13px" weight="400" font-style="" opacity="1" y="12.375" transform="rotate(0)"></text></g></g><g id="SvgjsG1195" transform="translate(767,506)"><path id="SvgjsPath1196" d="M 0 0L 68 0L 68 44L 0 44Z" stroke="rgba(50,50,50,1)" stroke-width="1" fill-opacity="1" fill="#ffffff"></path><g id="SvgjsG1197"><text id="SvgjsText1198" font-family="微软雅黑" text-anchor="middle" font-size="13px" width="48px" fill="#323232" font-weight="400" align="middle" lineHeight="125%" anchor="middle" family="微软雅黑" size="13px" weight="400" font-style="" opacity="1" y="12.375" transform="rotate(0)"></text></g></g><g id="SvgjsG1199" transform="translate(835,506)"><path id="SvgjsPath1200" d="M 0 0L 68 0L 68 44L 0 44Z" stroke="rgba(50,50,50,1)" stroke-width="1" fill-opacity="1" fill="#ffffff"></path><g id="SvgjsG1201"><text id="SvgjsText1202" font-family="微软雅黑" text-anchor="middle" font-size="13px" width="48px" fill="#323232" font-weight="400" align="middle" lineHeight="125%" anchor="middle" family="微软雅黑" size="13px" weight="400" font-style="" opacity="1" y="12.375" transform="rotate(0)"></text></g></g><g id="SvgjsG1203" transform="translate(903,506)"><path id="SvgjsPath1204" d="M 0 0L 68 0L 68 44L 0 44Z" stroke="rgba(50,50,50,1)" stroke-width="1" fill-opacity="1" fill="#ffffff"></path><g id="SvgjsG1205"><text id="SvgjsText1206" font-family="微软雅黑" text-anchor="middle" font-size="13px" width="48px" fill="#323232" font-weight="400" align="middle" lineHeight="125%" anchor="middle" family="微软雅黑" size="13px" weight="400" font-style="" opacity="1" y="12.375" transform="rotate(0)"></text></g></g><g id="SvgjsG1207" transform="translate(563,602)"><path id="SvgjsPath1208" d="M 0 0L 76 0L 76 31L 0 31Z" stroke="rgba(50,50,50,1)" stroke-width="1" fill-opacity="1" fill="#ffffcc"></path><g id="SvgjsG1209"><text id="SvgjsText1210" font-family="微软雅黑" text-anchor="middle" font-size="13px" width="56px" fill="#323232" font-weight="700" align="middle" lineHeight="125%" anchor="middle" family="微软雅黑" size="13px" weight="700" font-style="" opacity="1" y="5.875" transform="rotate(0)"><tspan id="SvgjsTspan1211" dy="16" x="38"><tspan id="SvgjsTspan1212" style="text-decoration:;">Survivor</tspan></tspan></text></g></g><g id="SvgjsG1213" transform="translate(715,602)"><path id="SvgjsPath1214" d="M 0 0L 91 0L 91 31L 0 31Z" stroke="rgba(50,50,50,1)" stroke-width="1" fill-opacity="1" fill="#cfcfcf"></path><g id="SvgjsG1215"><text id="SvgjsText1216" font-family="微软雅黑" text-anchor="middle" font-size="13px" width="71px" fill="#323232" font-weight="700" align="middle" lineHeight="125%" anchor="middle" family="微软雅黑" size="13px" weight="700" font-style="" opacity="1" y="5.875" transform="rotate(0)"><tspan id="SvgjsTspan1217" dy="16" x="45.5"><tspan id="SvgjsTspan1218" style="text-decoration:;">ToRecycle</tspan></tspan></text></g></g><g id="SvgjsG1219" transform="translate(875,602)"><path id="SvgjsPath1220" d="M 0 0L 91 0L 91 31L 0 31Z" stroke="rgba(50,50,50,1)" stroke-width="1" fill-opacity="1" fill="#ffffff"></path><g id="SvgjsG1221"><text id="SvgjsText1222" font-family="微软雅黑" text-anchor="middle" font-size="13px" width="71px" fill="#323232" font-weight="700" align="middle" lineHeight="125%" anchor="middle" family="微软雅黑" size="13px" weight="700" font-style="" opacity="1" y="5.875" transform="rotate(0)"><tspan id="SvgjsTspan1223" dy="16" x="45.5"><tspan id="SvgjsTspan1224" style="text-decoration:;">Avaliable</tspan></tspan></text></g></g><g id="SvgjsG1225" transform="translate(586,80)"><path id="SvgjsPath1226" d="M 0 0L 349 0L 349 39L 0 39Z" stroke="none" fill="none"></path><g id="SvgjsG1227"><text id="SvgjsText1228" font-family="微软雅黑" text-anchor="middle" font-size="20px" width="349px" fill="#323232" font-weight="700" align="middle" lineHeight="125%" anchor="middle" family="微软雅黑" size="20px" weight="700" font-style="" opacity="1" y="4.5" transform="rotate(0)"><tspan id="SvgjsTspan1229" dy="25" x="174.5"><tspan id="SvgjsTspan1230" style="text-decoration:;">Before GC</tspan></tspan></text></g></g><g id="SvgjsG1231" transform="translate(591,335)"><path id="SvgjsPath1232" d="M 0 0L 349 0L 349 39L 0 39Z" stroke="none" fill="none"></path><g id="SvgjsG1233"><text id="SvgjsText1234" font-family="微软雅黑" text-anchor="middle" font-size="20px" width="349px" fill="#323232" font-weight="700" align="middle" lineHeight="125%" anchor="middle" family="微软雅黑" size="20px" weight="700" font-style="" opacity="1" y="4.5" transform="rotate(0)"><tspan id="SvgjsTspan1235" dy="25" x="174.5"><tspan id="SvgjsTspan1236" style="text-decoration:;">After GC</tspan></tspan></text></g></g><g id="SvgjsG1237" transform="translate(172,163)"><path id="SvgjsPath1238" d="M 0 0L 133 0L 133 52L 0 52Z" stroke="rgba(50,50,50,1)" stroke-width="2" fill-opacity="1" fill="#ffffff"></path><g id="SvgjsG1239"><text id="SvgjsText1240" font-family="微软雅黑" text-anchor="middle" font-size="19px" width="113px" fill="#323232" font-weight="700" align="middle" lineHeight="125%" anchor="middle" family="微软雅黑" size="19px" weight="700" font-style="" opacity="1" y="12.125" transform="rotate(0)"><tspan id="SvgjsTspan1241" dy="23" x="66.5"><tspan id="SvgjsTspan1242" style="text-decoration:;">Mark</tspan></tspan></text></g></g><g id="SvgjsG1243" transform="translate(172,303)"><path id="SvgjsPath1244" d="M 0 0L 133 0L 133 52L 0 52Z" stroke="rgba(50,50,50,1)" stroke-width="2" fill-opacity="1" fill="#ffffff"></path><g id="SvgjsG1245"><text id="SvgjsText1246" font-family="微软雅黑" text-anchor="middle" font-size="19px" width="113px" fill="#323232" font-weight="700" align="middle" lineHeight="125%" anchor="middle" family="微软雅黑" size="19px" weight="700" font-style="" opacity="1" y="0.625" transform="rotate(0)"><tspan id="SvgjsTspan1247" dy="23" x="66.5"><tspan id="SvgjsTspan1248" style="text-decoration:;">Move </tspan></tspan><tspan id="SvgjsTspan1249" dy="23" x="66.5"><tspan id="SvgjsTspan1250" style="text-decoration:;">Survivor</tspan></tspan></text></g></g><g id="SvgjsG1251" transform="translate(172,433)"><path id="SvgjsPath1252" d="M 0 0L 133 0L 133 52L 0 52Z" stroke="rgba(50,50,50,1)" stroke-width="2" fill-opacity="1" fill="#ffffff"></path><g id="SvgjsG1253"><text id="SvgjsText1254" font-family="微软雅黑" text-anchor="middle" font-size="19px" width="113px" fill="#323232" font-weight="700" align="middle" lineHeight="125%" anchor="middle" family="微软雅黑" size="19px" weight="700" font-style="" opacity="1" y="12.125" transform="rotate(0)"><tspan id="SvgjsTspan1255" dy="23" x="66.5"><tspan id="SvgjsTspan1256" style="text-decoration:;">Clean</tspan></tspan></text></g></g><g id="SvgjsG1257" transform="matrix(-1,1.2246467991473532e-16,-1.2246467991473532e-16,-1,770,465)"><path id="SvgjsPath1258" d="M 17.166666666666668 0L 0 0L 0 48L 17.166666666666668 48" stroke="rgba(50,50,50,1)" stroke-width="2" fill="none"></path><path id="SvgjsPath1259" d="M 0 0L 103 0L 103 48L 0 48Z" stroke="none" fill="none"></path><g id="SvgjsG1260"><text id="SvgjsText1261" font-family="微软雅黑" text-anchor="middle" font-size="13px" width="83px" fill="#323232" font-weight="400" align="middle" lineHeight="125%" anchor="middle" family="微软雅黑" size="13px" weight="400" font-style="" opacity="1" y="14.375" transform="rotate(0)"></text></g></g><g id="SvgjsG1262"><path id="SvgjsPath1263" d="M770 441L885.5 441L885.5 408.5L1001 408.5" stroke-dasharray="8,5" stroke="#323232" stroke-width="1" fill="none" marker-end="url(#SvgjsMarker1264)"></path></g><g id="SvgjsG1266" transform="translate(1001,368)"><path id="SvgjsPath1267" d="M 0 0L 161 0L 161 81L 0 81Z" stroke="none" fill="none"></path><g id="SvgjsG1268"><text id="SvgjsText1269" font-family="微软雅黑" text-anchor="start" font-size="15px" width="161px" fill="#323232" font-weight="700" align="middle" lineHeight="125%" anchor="start" family="微软雅黑" size="15px" weight="700" font-style="" opacity="1" y="2.625" transform="rotate(0)"><tspan id="SvgjsTspan1270" dy="18" x="0"><tspan id="SvgjsTspan1271" style="text-decoration:;">The boundary. </tspan></tspan><tspan id="SvgjsTspan1272" dy="18" x="0"><tspan id="SvgjsTspan1273" style="text-decoration:;">Objects out of this </tspan></tspan><tspan id="SvgjsTspan1274" dy="18" x="0"><tspan id="SvgjsTspan1275" style="text-decoration:;">boundary is cleaned </tspan></tspan><tspan id="SvgjsTspan1276" dy="18" x="0"><tspan id="SvgjsTspan1277" style="text-decoration:;">at one.</tspan></tspan></text></g></g><g id="SvgjsG1278"><path id="SvgjsPath1279" d="M238.5 215L238.5 259L238.5 259L238.5 303" stroke="#323232" stroke-width="2" fill="none" marker-end="url(#SvgjsMarker1280)"></path></g><g id="SvgjsG1282"><path id="SvgjsPath1283" d="M238.5 355L238.5 394L238.5 394L238.5 433" stroke="#323232" stroke-width="2" fill="none" marker-end="url(#SvgjsMarker1284)"></path></g><g id="SvgjsG1286" transform="translate(1200,112)"><path id="SvgjsPath1287" d="M 0 0L 426 0L 426 115L 0 115Z" stroke="rgba(50,50,50,1)" stroke-width="2" fill-opacity="1" fill="#ffffcc"></path><g id="SvgjsG1288"><text id="SvgjsText1289" font-family="微软雅黑" text-anchor="middle" font-size="17px" width="406px" fill="#323232" font-weight="700" align="top" lineHeight="125%" anchor="middle" family="微软雅黑" size="17px" weight="700" font-style="" opacity="1" y="-2.125" transform="rotate(0)"><tspan id="SvgjsTspan1290" dy="21" x="213"><tspan id="SvgjsTspan1291" style="text-decoration:;">Advantages</tspan></tspan><tspan id="SvgjsTspan1292" dy="21" x="213"><tspan id="SvgjsTspan1293" style="text-decoration:;"> </tspan></tspan><tspan id="SvgjsTspan1294" dy="21" x="213"><tspan id="SvgjsTspan1295" style="text-decoration:;"> </tspan></tspan></text></g></g><g id="SvgjsG1296" transform="translate(1247,159)"><path id="SvgjsPath1297" d="M 0 0L 316 0L 316 28L 0 28Z" stroke="none" fill="none"></path><g id="SvgjsG1298"><text id="SvgjsText1299" font-family="微软雅黑" text-anchor="start" font-size="15px" width="316px" fill="#323232" font-weight="700" align="middle" lineHeight="125%" anchor="start" family="微软雅黑" size="15px" weight="700" font-style="" opacity="1" y="3.125" transform="rotate(0)"><tspan id="SvgjsTspan1300" dy="18" x="0"><tspan id="SvgjsTspan1301" style="text-decoration:;">Fragment memory will not be a problem.</tspan></tspan></text></g></g><g id="SvgjsG1302" transform="translate(1200,368)"><path id="SvgjsPath1303" d="M 0 0L 426 0L 426 146L 0 146Z" stroke="rgba(50,50,50,1)" stroke-width="2" fill-opacity="1" fill="#ffcccc"></path><g id="SvgjsG1304"><text id="SvgjsText1305" font-family="微软雅黑" text-anchor="middle" font-size="17px" width="406px" fill="#323232" font-weight="700" align="top" lineHeight="125%" anchor="middle" family="微软雅黑" size="17px" weight="700" font-style="" opacity="1" y="-2.125" transform="rotate(0)"><tspan id="SvgjsTspan1306" dy="21" x="213"><tspan id="SvgjsTspan1307" style="text-decoration:;">Disadvantages</tspan></tspan><tspan id="SvgjsTspan1308" dy="21" x="213"><tspan id="SvgjsTspan1309" style="text-decoration:;"> </tspan></tspan><tspan id="SvgjsTspan1310" dy="21" x="213"><tspan id="SvgjsTspan1311" style="text-decoration:;"> </tspan></tspan></text></g></g><g id="SvgjsG1312" transform="translate(1214,395)"><path id="SvgjsPath1313" d="M 0 0L 419 0L 419 105L 0 105Z" stroke="none" fill="none"></path><g id="SvgjsG1314"><text id="SvgjsText1315" font-family="微软雅黑" text-anchor="start" font-size="15px" width="419px" fill="#323232" font-weight="700" align="middle" lineHeight="125%" anchor="start" family="微软雅黑" size="15px" weight="700" font-style="" opacity="1" y="14.625" transform="rotate(0)"><tspan id="SvgjsTspan1316" dy="18" x="0"><tspan id="SvgjsTspan1317" style="text-decoration:;">1. Moving a lot of survivors(most likely in Tenured) and </tspan></tspan><tspan id="SvgjsTspan1318" dy="18" x="0"><tspan id="SvgjsTspan1319" style="text-decoration:;">updating the references will be a heavy job.</tspan></tspan><tspan id="SvgjsTspan1320" dy="18" x="0"><tspan id="SvgjsTspan1321" style="text-decoration:;"> </tspan></tspan><tspan id="SvgjsTspan1322" dy="18" x="0"><tspan id="SvgjsTspan1323" style="text-decoration:;">2. Mentioned actions need to " Stop the World"</tspan></tspan></text></g></g><g id="SvgjsG1324" transform="translate(25,514)"><path id="SvgjsPath1325" d="M 0 0L 362 0L 362 44L 0 44Z" stroke="none" fill="none"></path><g id="SvgjsG1326"><text id="SvgjsText1327" font-family="微软雅黑" text-anchor="start" font-size="15px" width="362px" fill="#323232" font-weight="700" align="middle" lineHeight="125%" anchor="start" family="微软雅黑" size="15px" weight="700" font-style="" opacity="1" y="11.125" transform="rotate(0)"><tspan id="SvgjsTspan1328" dy="18" x="0"><tspan id="SvgjsTspan1329" style="text-decoration:;">You can view "move" and "clean" as "compact".</tspan></tspan></text></g></g></svg>